<svg width="36" height="28" viewBox="0 0 36 28" fill="none" xmlns="http://www.w3.org/2000/svg">
<path d="M17.9642 0.500995C8.01244 0.500995 0 8.38208 0 17.9321C0 23.4798 3.40741 27.1499 8.41422 27.4821C13.6219 27.8144 17.7634 23.8738 17.9642 18.3339C18.1651 13.528 21.6421 9.58743 26.7184 9.58743C31.5939 9.58743 35.0013 13.6593 35.7353 18.5348C35.7353 18.6661 35.998 18.6661 35.998 18.5348C36.0334 16.1568 35.5912 13.7958 34.6974 11.5919C33.8037 9.3879 32.4767 7.38575 30.795 5.70405C29.1133 4.02235 27.1111 2.69532 24.9072 1.80158C22.7032 0.907836 20.3423 0.465574 17.9642 0.500995V0.500995Z" fill="#AAAAAA"/>
</svg>
