<svg width="33" height="32" viewBox="0 0 33 32" fill="none" xmlns="http://www.w3.org/2000/svg">
<path d="M29.147 9.81073C29.0027 9.26713 28.7181 8.771 28.3217 8.37201C27.9252 7.97302 27.431 7.68518 26.8883 7.53732C24.8959 7 16.9067 7 16.9067 7C16.9067 7 8.9175 7 6.92511 7.53732C6.38246 7.68518 5.88818 7.97302 5.49177 8.37201C5.09535 8.771 4.81072 9.26713 4.66638 9.81073C4.2981 11.853 4.11938 13.9249 4.13251 16C4.11938 18.0751 4.2981 20.147 4.66638 22.1893C4.81073 22.7329 5.09536 23.229 5.49177 23.628C5.88819 24.027 6.38247 24.3148 6.92512 24.4627C8.91751 25 16.9067 25 16.9067 25C16.9067 25 24.8959 25 26.8883 24.4627C27.431 24.3148 27.9252 24.027 28.3216 23.628C28.7181 23.229 29.0027 22.7329 29.147 22.1893C29.5153 20.147 29.694 18.0751 29.6809 16C29.694 13.9249 29.5153 11.853 29.147 9.81073V9.81073ZM14.2938 19.7987V12.2013L20.9712 16.0001L14.2938 19.7987Z" fill="#AAAAAA"/>
</svg>
