<svg width="33" height="32" viewBox="0 0 33 32" fill="none" xmlns="http://www.w3.org/2000/svg">
<path d="M29.9062 16.079C29.901 13.5958 29.1846 11.166 27.8419 9.07715C26.4992 6.98827 24.5863 5.32765 22.3295 4.29172C20.0728 3.25579 17.5665 2.88789 15.1072 3.23154C12.6479 3.57519 10.3384 4.61601 8.45206 6.23089C6.56568 7.84577 5.18128 9.96713 4.4626 12.3441C3.74393 14.721 3.72105 17.254 4.39669 19.6435C5.07232 22.033 6.4182 24.1791 8.27511 25.8277C10.132 27.4764 12.4223 28.5588 14.875 28.9468V19.8443H11.5742V16.079H14.875V13.2092C14.875 9.9445 16.8158 8.14121 19.7853 8.14121C20.7602 8.1548 21.7328 8.23983 22.6953 8.39562V11.6012H21.056C20.7764 11.5644 20.4921 11.591 20.2241 11.679C19.9561 11.7669 19.7114 11.914 19.508 12.1093C19.3045 12.3047 19.1476 12.5432 19.0489 12.8074C18.9501 13.0716 18.9121 13.3546 18.9375 13.6355V16.079H22.5429L21.9666 19.8443H18.9375V28.9468C21.998 28.4582 24.784 26.894 26.7945 24.5354C28.8051 22.1767 29.9084 19.1783 29.9062 16.079" fill="#AAAAAA"/>
</svg>
