<svg width="20" height="16" viewBox="0 0 20 16" fill="none" xmlns="http://www.w3.org/2000/svg">
<path d="M17.209 10.253C17.113 9.586 16.598 9.066 15.935 8.911C13.358 8.307 12.712 6.823 12.603 5.177C12.146 5.092 11.333 5 9.95304 5C8.57304 5 7.76003 5.092 7.30303 5.177C7.19403 6.823 6.54803 8.307 3.97104 8.911C3.30804 9.067 2.79304 9.586 2.69704 10.253L2.20004 13.695C2.02504 14.907 2.91504 16 4.15304 16H15.753C16.99 16 17.881 14.907 17.706 13.695L17.209 10.253ZM9.95304 13.492C8.55804 13.492 7.42703 12.372 7.42703 10.992C7.42703 9.612 8.55804 8.492 9.95304 8.492C11.348 8.492 12.479 9.612 12.479 10.992C12.479 12.372 11.347 13.492 9.95304 13.492ZM19.903 4C19.879 2.5 16.061 0.001 9.95304 0C3.84404 0.001 0.0260316 2.5 0.00303159 4C-0.0199684 5.5 0.0240314 7.452 2.53803 7.127C5.47903 6.746 5.29804 5.719 5.29804 4.251C5.29804 3.227 7.69004 2.98 9.95304 2.98C12.216 2.98 14.607 3.227 14.608 4.251C14.608 5.719 14.427 6.746 17.368 7.127C19.881 7.452 19.926 5.5 19.903 4Z" fill="#AAAAAA"/>
</svg>
