<svg width="16" height="16" viewBox="0 0 16 16" fill="none" xmlns="http://www.w3.org/2000/svg">
<mask id="mask0_179_478" style="mask-type:alpha" maskUnits="userSpaceOnUse" x="0" y="0" width="16" height="16">
<rect width="16" height="16" fill="#D9D9D9"/>
</mask>
<g mask="url(#mask0_179_478)">
<path d="M3.96678 13.3332L4.61718 10.6996H2.33398L2.68358 9.29962H4.96678L5.61718 6.69962H3.00038L3.35078 5.29962H5.96678L6.61718 2.66602H8.03398L7.38358 5.29962H9.96678L10.6172 2.66602H12.034L11.3836 5.29962H13.6668L13.3172 6.69962H11.034L10.3836 9.29962H13.0004L12.65 10.6996H10.034L9.38358 13.3332H7.96678L8.61718 10.6996H6.03398L5.38358 13.3332H3.96678ZM6.38358 9.29962H8.96678L9.61718 6.69962H7.03398L6.38358 9.29962Z" fill="#AAAAAA"/>
</g>
</svg>
