<svg width="33" height="32" viewBox="0 0 33 32" fill="none" xmlns="http://www.w3.org/2000/svg">
<path d="M16.9062 6.16216C20.1104 6.16216 20.4899 6.17438 21.7553 6.23211C22.5162 6.24114 23.2699 6.38091 23.9835 6.64531C24.501 6.84495 24.971 7.15072 25.3633 7.54296C25.7555 7.9352 26.0613 8.4052 26.2609 8.92274C26.5253 9.63632 26.6651 10.39 26.6741 11.151C26.7318 12.4163 26.7441 12.7959 26.7441 16C26.7441 19.2041 26.7318 19.5836 26.6741 20.849C26.6651 21.6099 26.5253 22.3636 26.2609 23.0772C26.0613 23.5947 25.7555 24.0647 25.3633 24.457C24.971 24.8492 24.501 25.155 23.9835 25.3546C23.2699 25.619 22.5162 25.7588 21.7553 25.7678C20.4901 25.8256 20.1106 25.8378 16.9062 25.8378C13.7019 25.8378 13.3224 25.8256 12.0573 25.7678C11.2963 25.7588 10.5426 25.619 9.82901 25.3546C9.31147 25.155 8.84147 24.8492 8.44923 24.457C8.05699 24.0647 7.75122 23.5947 7.55158 23.0772C7.28718 22.3636 7.14741 21.6099 7.13838 20.849C7.08065 19.5836 7.06843 19.2041 7.06843 16C7.06843 12.7959 7.08065 12.4163 7.13838 11.151C7.14741 10.39 7.28718 9.63632 7.55158 8.92274C7.75122 8.40521 8.05699 7.9352 8.44922 7.54296C8.84145 7.15073 9.31146 6.84495 9.82899 6.64531C10.5426 6.38091 11.2963 6.24114 12.0572 6.23211C13.3226 6.17438 13.7021 6.16216 16.9062 6.16216H16.9062ZM16.9062 4C13.6472 4 13.2386 4.0138 11.9587 4.0722C10.9632 4.09215 9.97823 4.28075 9.04578 4.63C8.24864 4.9383 7.52469 5.40973 6.92034 6.01409C6.31598 6.61844 5.84455 7.34239 5.53625 8.13953C5.18701 9.07198 4.9984 10.0569 4.97846 11.0524C4.92005 12.3323 4.90625 12.741 4.90625 16C4.90625 19.259 4.92005 19.6677 4.97845 20.9476C4.9984 21.9431 5.187 22.928 5.53625 23.8605C5.84455 24.6576 6.31598 25.3816 6.92034 25.9859C7.52469 26.5903 8.24864 27.0617 9.04578 27.37C9.97823 27.7192 10.9632 27.9078 11.9587 27.9278C13.2386 27.9862 13.6472 28 16.9062 28C20.1653 28 20.5739 27.9862 21.8538 27.9278C22.8493 27.9079 23.8343 27.7192 24.7667 27.37C25.5639 27.0617 26.2878 26.5903 26.8922 25.9859C27.4965 25.3816 27.968 24.6576 28.2763 23.8605C28.6255 22.928 28.8141 21.9431 28.834 20.9476C28.8924 19.6677 28.9062 19.259 28.9062 16C28.9062 12.741 28.8924 12.3323 28.834 11.0524C28.8141 10.0569 28.6255 9.07198 28.2763 8.13953C27.968 7.34239 27.4965 6.61844 26.8922 6.01409C26.2878 5.40973 25.5639 4.9383 24.7667 4.63C23.8343 4.28076 22.8493 4.09215 21.8538 4.07221C20.5739 4.0138 20.1653 4 16.9062 4ZM16.9062 9.83784C15.6875 9.83784 14.4961 10.1992 13.4827 10.8764C12.4694 11.5535 11.6796 12.5159 11.2132 13.6418C10.7468 14.7678 10.6247 16.0068 10.8625 17.2022C11.1003 18.3975 11.6872 19.4955 12.5489 20.3573C13.4107 21.2191 14.5087 21.806 15.7041 22.0438C16.8994 22.2815 18.1384 22.1595 19.2644 21.6931C20.3904 21.2267 21.3528 20.4369 22.0299 19.4235C22.707 18.4102 23.0684 17.2188 23.0684 16C23.0684 14.3657 22.4192 12.7983 21.2636 11.6427C20.1079 10.4871 18.5406 9.83784 16.9062 9.83784V9.83784ZM16.9062 20C16.1151 20 15.3418 19.7654 14.684 19.3259C14.0262 18.8864 13.5135 18.2616 13.2107 17.5307C12.908 16.7998 12.8288 15.9956 12.9831 15.2196C13.1374 14.4437 13.5184 13.731 14.0778 13.1716C14.6372 12.6122 15.35 12.2312 16.1259 12.0769C16.9018 11.9225 17.7061 12.0017 18.437 12.3045C19.1679 12.6072 19.7926 13.1199 20.2321 13.7777C20.6717 14.4355 20.9062 15.2089 20.9062 16C20.9062 17.0609 20.4848 18.0783 19.7347 18.8284C18.9845 19.5786 17.9671 20 16.9062 20ZM23.3119 8.15437C23.0271 8.15437 22.7487 8.23882 22.5119 8.39705C22.2751 8.55528 22.0905 8.78018 21.9815 9.04331C21.8725 9.30643 21.844 9.59597 21.8995 9.8753C21.9551 10.1546 22.0923 10.4112 22.2936 10.6126C22.495 10.814 22.7516 10.9511 23.031 11.0067C23.3103 11.0623 23.5998 11.0337 23.8629 10.9248C24.1261 10.8158 24.351 10.6312 24.5092 10.3944C24.6674 10.1576 24.7519 9.87917 24.7519 9.59437C24.7519 9.40527 24.7146 9.21801 24.6423 9.04331C24.5699 8.8686 24.4638 8.70985 24.3301 8.57614C24.1964 8.44242 24.0377 8.33635 23.8629 8.26398C23.6882 8.19162 23.501 8.15437 23.3119 8.15437Z" fill="#AAAAAA"/>
</svg>
