<svg width="33" height="32" viewBox="0 0 33 32" fill="none" xmlns="http://www.w3.org/2000/svg">
<g clip-path="url(#clip0_179_480)">
<path d="M9.09863 4.63281C8.30762 4.94043 7.63867 5.35059 6.96973 6.01953C6.30078 6.68359 5.89063 7.35742 5.58301 8.14355C5.28516 8.90527 5.08496 9.7793 5.02637 11.0586C4.96777 12.3379 4.95312 12.748 4.95312 16.0098C4.95312 19.2715 4.96777 19.6816 5.02637 20.9609C5.08496 22.2402 5.29004 23.1143 5.58301 23.876C5.89063 24.667 6.30078 25.3359 6.96973 26.0049C7.63867 26.6738 8.30762 27.084 9.09863 27.3916C9.86035 27.6895 10.7344 27.8897 12.0137 27.9482C13.293 28.0068 13.7031 28.0215 16.9648 28.0215C20.2266 28.0215 20.6367 28.0068 21.916 27.9482C23.1953 27.8897 24.0693 27.6846 24.8311 27.3916C25.6221 27.084 26.291 26.6738 26.96 26.0049C27.6289 25.3359 28.0391 24.667 28.3467 23.876C28.6445 23.1143 28.8447 22.2402 28.9033 20.9609C28.9619 19.6816 28.9766 19.2715 28.9766 16.0098C28.9766 12.748 28.9619 12.3379 28.9033 11.0586C28.8447 9.7793 28.6396 8.90527 28.3467 8.14355C28.0391 7.35742 27.6289 6.68359 26.9648 6.01953C26.2959 5.35059 25.627 4.94043 24.8359 4.63281C24.0742 4.33496 23.2002 4.13477 21.9209 4.07617C20.6416 4.01758 20.2314 4.00293 16.9697 4.00293C13.708 4.00293 13.2979 4.01758 12.0186 4.07617C10.7344 4.12988 9.86035 4.33496 9.09863 4.63281ZM21.8184 6.23438C22.9902 6.28809 23.625 6.4834 24.0498 6.64941C24.6113 6.86914 25.0117 7.12793 25.4316 7.54785C25.8516 7.96777 26.1104 8.36816 26.3301 8.92969C26.4961 9.35449 26.6914 9.98926 26.7451 11.1611C26.8037 12.4258 26.8135 12.8066 26.8135 16.0146C26.8135 19.2227 26.7988 19.6035 26.7451 20.8682C26.6914 22.04 26.4961 22.6748 26.3301 23.0996C26.1104 23.6611 25.8516 24.0615 25.4316 24.4814C25.0117 24.9014 24.6113 25.1602 24.0498 25.3799C23.625 25.5459 22.9902 25.7412 21.8184 25.7949C20.5537 25.8535 20.1729 25.8633 16.9648 25.8633C13.7568 25.8633 13.376 25.8486 12.1113 25.7949C10.9395 25.7412 10.3047 25.5459 9.87988 25.3799C9.31836 25.1602 8.91797 24.9014 8.49805 24.4814C8.07813 24.0615 7.81934 23.6611 7.59961 23.0996C7.43359 22.6748 7.23828 22.04 7.18457 20.8682C7.12598 19.6035 7.11621 19.2227 7.11621 16.0146C7.11621 12.8066 7.13086 12.4258 7.18457 11.1611C7.23828 9.98926 7.43359 9.35449 7.59961 8.92969C7.81934 8.36816 8.07813 7.96777 8.49805 7.54785C8.91797 7.12793 9.31836 6.86914 9.87988 6.64941C10.3047 6.4834 10.9395 6.28809 12.1113 6.23438C13.376 6.17578 13.7568 6.16602 16.9648 6.16602C20.1729 6.16602 20.5537 6.17578 21.8184 6.23438Z" fill="url(#paint0_radial_179_480)"/>
<path d="M10.7979 16.0146C10.7979 19.4229 13.5615 22.1816 16.9648 22.1816C20.3682 22.1816 23.1318 19.418 23.1318 16.0146C23.1318 12.6113 20.373 9.84766 16.9648 9.84766C13.5566 9.84766 10.7979 12.6064 10.7979 16.0146ZM20.9688 16.0146C20.9688 18.2266 19.1768 20.0186 16.9648 20.0186C14.7529 20.0186 12.9609 18.2266 12.9609 16.0146C12.9609 13.8027 14.7529 12.0107 16.9648 12.0107C19.1768 12.0107 20.9688 13.8027 20.9688 16.0146Z" fill="url(#paint1_radial_179_480)"/>
<path d="M23.3809 11.0439C24.1764 11.0439 24.8213 10.399 24.8213 9.60352C24.8213 8.80799 24.1764 8.16309 23.3809 8.16309C22.5853 8.16309 21.9404 8.80799 21.9404 9.60352C21.9404 10.399 22.5853 11.0439 23.3809 11.0439Z" fill="#654C9F"/>
</g>
<defs>
<radialGradient id="paint0_radial_179_480" cx="0" cy="0" r="1" gradientUnits="userSpaceOnUse" gradientTransform="translate(5.39023 25.8225) rotate(-3.00009) scale(34.7321 29.522)">
<stop stop-color="#FED576"/>
<stop offset="0.2634" stop-color="#F47133"/>
<stop offset="0.6091" stop-color="#BC3081"/>
<stop offset="1" stop-color="#4C63D2"/>
</radialGradient>
<radialGradient id="paint1_radial_179_480" cx="0" cy="0" r="1" gradientUnits="userSpaceOnUse" gradientTransform="translate(11.0215 21.0506) rotate(-3.00009) scale(17.8354 15.1599)">
<stop stop-color="#FED576"/>
<stop offset="0.2634" stop-color="#F47133"/>
<stop offset="0.6091" stop-color="#BC3081"/>
<stop offset="1" stop-color="#4C63D2"/>
</radialGradient>
<clipPath id="clip0_179_480">
<rect width="25" height="25" fill="white" transform="translate(4.40625 3.5)"/>
</clipPath>
</defs>
</svg>
