<svg id="Layer_1" data-name="Layer 1" xmlns="http://www.w3.org/2000/svg" viewBox="0 0 65 13"><polygon points="6.73 0.9 7.99 5.36 12.61 5.18 8.76 7.75 10.36 12.09 6.73 9.23 3.09 12.09 4.69 7.75 0.84 5.18 5.47 5.36 6.73 0.9"/><polygon points="19.81 0.9 21.07 5.36 25.69 5.18 21.84 7.75 23.44 12.09 19.81 9.23 16.17 12.09 17.77 7.75 13.93 5.18 18.55 5.36 19.81 0.9"/><polygon points="32.69 0.94 33.94 5.36 38.53 5.19 34.71 7.74 36.3 12.06 32.69 9.21 29.08 12.06 30.66 7.74 26.84 5.19 31.44 5.36 32.69 0.94"/><polygon points="45.69 0.94 46.94 5.36 51.53 5.19 47.71 7.74 49.3 12.06 45.69 9.21 42.08 12.06 43.66 7.74 39.84 5.19 44.44 5.36 45.69 0.94"/><polygon points="58.69 0.94 59.94 5.36 64.53 5.19 60.71 7.74 62.3 12.06 58.69 9.21 55.08 12.06 56.66 7.74 52.84 5.19 57.44 5.36 58.69 0.94"/></svg>