<svg width="32" height="32" viewBox="0 0 32 32" fill="none" xmlns="http://www.w3.org/2000/svg">
<g clip-path="url(#clip0_47_221)">
<path d="M8.19238 4.63281C7.40137 4.94043 6.73242 5.35059 6.06348 6.01953C5.39453 6.68359 4.98438 7.35742 4.67676 8.14355C4.37891 8.90527 4.17871 9.7793 4.12012 11.0586C4.06152 12.3379 4.04688 12.748 4.04688 16.0098C4.04688 19.2715 4.06152 19.6816 4.12012 20.9609C4.17871 22.2402 4.38379 23.1143 4.67676 23.876C4.98438 24.667 5.39453 25.3359 6.06348 26.0049C6.73242 26.6738 7.40137 27.084 8.19238 27.3916C8.9541 27.6895 9.82813 27.8897 11.1074 27.9482C12.3867 28.0068 12.7969 28.0215 16.0586 28.0215C19.3203 28.0215 19.7305 28.0068 21.0098 27.9482C22.2891 27.8897 23.1631 27.6846 23.9248 27.3916C24.7158 27.084 25.3848 26.6738 26.0537 26.0049C26.7227 25.3359 27.1328 24.667 27.4404 23.876C27.7383 23.1143 27.9385 22.2402 27.9971 20.9609C28.0557 19.6816 28.0703 19.2715 28.0703 16.0098C28.0703 12.748 28.0557 12.3379 27.9971 11.0586C27.9385 9.7793 27.7334 8.90527 27.4404 8.14355C27.1328 7.35742 26.7227 6.68359 26.0586 6.01953C25.3896 5.35059 24.7207 4.94043 23.9297 4.63281C23.168 4.33496 22.2939 4.13477 21.0146 4.07617C19.7354 4.01758 19.3252 4.00293 16.0635 4.00293C12.8018 4.00293 12.3916 4.01758 11.1123 4.07617C9.82812 4.12988 8.9541 4.33496 8.19238 4.63281ZM20.9121 6.23438C22.084 6.28809 22.7187 6.4834 23.1436 6.64941C23.7051 6.86914 24.1055 7.12793 24.5254 7.54785C24.9453 7.96777 25.2041 8.36816 25.4238 8.92969C25.5898 9.35449 25.7852 9.98926 25.8389 11.1611C25.8975 12.4258 25.9072 12.8066 25.9072 16.0146C25.9072 19.2227 25.8926 19.6035 25.8389 20.8682C25.7852 22.04 25.5898 22.6748 25.4238 23.0996C25.2041 23.6611 24.9453 24.0615 24.5254 24.4814C24.1055 24.9014 23.7051 25.1602 23.1436 25.3799C22.7187 25.5459 22.084 25.7412 20.9121 25.7949C19.6475 25.8535 19.2666 25.8633 16.0586 25.8633C12.8506 25.8633 12.4697 25.8486 11.2051 25.7949C10.0332 25.7412 9.39844 25.5459 8.97363 25.3799C8.41211 25.1602 8.01172 24.9014 7.5918 24.4814C7.17188 24.0615 6.91309 23.6611 6.69336 23.0996C6.52734 22.6748 6.33203 22.04 6.27832 20.8682C6.21973 19.6035 6.20996 19.2227 6.20996 16.0146C6.20996 12.8066 6.22461 12.4258 6.27832 11.1611C6.33203 9.98926 6.52734 9.35449 6.69336 8.92969C6.91309 8.36816 7.17188 7.96777 7.5918 7.54785C8.01172 7.12793 8.41211 6.86914 8.97363 6.64941C9.39844 6.4834 10.0332 6.28809 11.2051 6.23438C12.4697 6.17578 12.8506 6.16602 16.0586 6.16602C19.2666 6.16602 19.6475 6.17578 20.9121 6.23438Z" fill="url(#paint0_radial_47_221)"/>
<path d="M9.8916 16.0146C9.8916 19.4229 12.6553 22.1816 16.0586 22.1816C19.4619 22.1816 22.2256 19.418 22.2256 16.0146C22.2256 12.6113 19.4668 9.84766 16.0586 9.84766C12.6504 9.84766 9.8916 12.6064 9.8916 16.0146ZM20.0625 16.0146C20.0625 18.2266 18.2705 20.0186 16.0586 20.0186C13.8467 20.0186 12.0547 18.2266 12.0547 16.0146C12.0547 13.8027 13.8467 12.0107 16.0586 12.0107C18.2705 12.0107 20.0625 13.8027 20.0625 16.0146Z" fill="url(#paint1_radial_47_221)"/>
<path d="M22.4746 11.0439C23.2701 11.0439 23.915 10.399 23.915 9.60352C23.915 8.80799 23.2701 8.16309 22.4746 8.16309C21.6791 8.16309 21.0342 8.80799 21.0342 9.60352C21.0342 10.399 21.6791 11.0439 22.4746 11.0439Z" fill="#654C9F"/>
</g>
<defs>
<radialGradient id="paint0_radial_47_221" cx="0" cy="0" r="1" gradientUnits="userSpaceOnUse" gradientTransform="translate(4.48398 25.8225) rotate(-3.00009) scale(34.7321 29.522)">
<stop stop-color="#FED576"/>
<stop offset="0.2634" stop-color="#F47133"/>
<stop offset="0.6091" stop-color="#BC3081"/>
<stop offset="1" stop-color="#4C63D2"/>
</radialGradient>
<radialGradient id="paint1_radial_47_221" cx="0" cy="0" r="1" gradientUnits="userSpaceOnUse" gradientTransform="translate(10.1153 21.0506) rotate(-3.00009) scale(17.8354 15.1599)">
<stop stop-color="#FED576"/>
<stop offset="0.2634" stop-color="#F47133"/>
<stop offset="0.6091" stop-color="#BC3081"/>
<stop offset="1" stop-color="#4C63D2"/>
</radialGradient>
<clipPath id="clip0_47_221">
<rect width="25" height="25" fill="white" transform="translate(3.5 3.5)"/>
</clipPath>
</defs>
</svg>
