<svg id="svg" version="1.1" xmlns="http://www.w3.org/2000/svg" width="400" height="370.8474576271187" viewBox="0, 0, 400,370.8474576271187"><g id="svgg"><path id="path0" d="M42.950 0.271 C 41.981 0.348,41.187 0.570,41.187 0.762 C 41.187 0.955,40.519 1.113,39.703 1.113 C 38.887 1.113,38.219 1.261,38.219 1.442 C 38.219 1.741,35.078 2.441,34.416 2.290 C 34.263 2.255,34.137 2.393,34.137 2.597 C 34.137 2.801,33.720 2.968,33.210 2.968 C 32.699 2.968,32.282 3.135,32.282 3.340 C 32.282 3.544,31.948 3.711,31.540 3.711 C 31.132 3.711,30.798 3.846,30.798 4.012 C 30.798 4.178,30.213 4.543,29.499 4.824 C 28.785 5.104,28.200 5.451,28.200 5.594 C 28.200 5.737,27.652 5.957,26.982 6.083 C 26.312 6.208,25.524 6.645,25.231 7.052 C 24.937 7.459,24.437 7.792,24.119 7.792 C 23.801 7.792,23.300 8.126,23.006 8.534 C 22.711 8.942,22.257 9.276,21.996 9.276 C 21.735 9.276,21.521 9.411,21.521 9.576 C 21.521 9.741,20.895 10.152,20.129 10.490 C 19.363 10.828,18.486 11.470,18.181 11.918 C 17.875 12.365,17.224 13.081,16.733 13.508 C 15.064 14.964,13.358 16.722,13.357 16.988 C 13.356 17.135,12.851 17.588,12.235 17.996 C 11.618 18.404,10.835 19.365,10.495 20.130 C 10.154 20.895,9.741 21.521,9.576 21.521 C 9.411 21.521,9.276 21.735,9.276 21.996 C 9.276 22.257,8.942 22.711,8.534 23.006 C 8.126 23.300,7.792 23.801,7.792 24.119 C 7.792 24.437,7.459 24.937,7.052 25.231 C 6.645 25.524,6.208 26.312,6.083 26.982 C 5.957 27.652,5.706 28.200,5.525 28.200 C 5.343 28.200,5.195 28.534,5.195 28.942 C 5.195 29.351,5.028 29.685,4.824 29.685 C 4.620 29.685,4.453 29.935,4.453 30.241 C 4.453 30.547,4.286 30.798,4.082 30.798 C 3.878 30.798,3.711 31.132,3.711 31.540 C 3.711 31.948,3.563 32.282,3.382 32.282 C 3.060 32.282,2.633 33.870,2.511 35.529 C 2.477 35.988,2.315 36.364,2.152 36.364 C 1.989 36.364,1.855 36.781,1.855 37.291 C 1.855 37.801,1.688 38.219,1.484 38.219 C 1.280 38.219,1.113 38.873,1.113 39.672 C 1.113 40.505,0.915 41.192,0.649 41.280 C -0.033 41.508,-0.033 240.125,0.649 240.353 C 0.904 240.438,1.113 240.994,1.113 241.589 C 1.113 242.185,1.280 242.672,1.484 242.672 C 1.688 242.672,1.855 243.256,1.855 243.970 C 1.855 244.685,2.013 245.269,2.205 245.269 C 2.397 245.269,2.491 245.599,2.413 246.003 C 2.336 246.407,2.429 246.834,2.620 246.953 C 2.812 247.071,2.968 247.492,2.968 247.888 C 2.968 248.284,3.135 248.609,3.340 248.609 C 3.544 248.609,3.711 248.942,3.711 249.351 C 3.711 249.759,3.878 250.093,4.082 250.093 C 4.286 250.093,4.453 250.343,4.453 250.649 C 4.453 250.955,4.620 251.206,4.824 251.206 C 5.028 251.206,5.195 251.540,5.195 251.948 C 5.195 252.356,5.343 252.690,5.525 252.690 C 5.706 252.690,5.964 253.275,6.098 253.989 C 6.232 254.703,6.501 255.288,6.696 255.288 C 6.891 255.288,7.050 255.585,7.050 255.948 C 7.050 256.311,7.384 256.849,7.792 257.143 C 8.200 257.437,8.534 257.815,8.534 257.983 C 8.534 258.151,8.952 258.739,9.462 259.289 C 9.972 259.839,10.390 260.473,10.390 260.697 C 10.390 260.922,11.221 261.859,12.237 262.781 C 13.253 263.702,13.976 264.564,13.845 264.696 C 13.713 264.827,13.800 264.935,14.038 264.935 C 14.276 264.935,14.471 265.174,14.471 265.467 C 14.471 265.759,14.797 266.102,15.194 266.228 C 15.950 266.468,18.464 268.646,17.985 268.646 C 17.834 268.646,18.275 269.144,18.966 269.753 C 19.657 270.362,20.504 270.863,20.847 270.866 C 21.190 270.869,21.577 271.206,21.707 271.614 C 21.836 272.022,22.204 272.356,22.523 272.356 C 22.843 272.356,23.374 272.668,23.705 273.049 C 24.035 273.429,24.815 273.853,25.438 273.990 C 26.062 274.127,26.808 274.567,27.097 274.967 C 27.386 275.368,27.919 275.696,28.282 275.696 C 28.645 275.696,28.944 275.821,28.945 275.974 C 28.949 276.351,30.785 277.180,31.614 277.180 C 31.981 277.180,32.282 277.337,32.282 277.528 C 32.282 277.720,33.033 277.989,33.952 278.127 C 34.870 278.265,35.622 278.525,35.622 278.706 C 35.622 278.887,36.029 279.035,36.527 279.035 C 37.025 279.035,37.536 279.202,37.662 279.406 C 37.788 279.610,38.466 279.777,39.168 279.777 C 39.871 279.777,40.445 279.944,40.445 280.148 C 40.445 280.353,41.030 280.519,41.744 280.519 C 42.458 280.519,43.043 280.686,43.043 280.891 C 43.043 281.105,44.210 281.262,45.804 281.262 C 47.322 281.262,48.668 281.429,48.794 281.633 C 48.945 281.877,67.217 282.004,102.403 282.004 C 157.545 282.004,156.957 281.991,156.957 283.157 C 156.957 283.543,157.124 283.859,157.328 283.859 C 157.532 283.859,157.699 284.276,157.699 284.787 C 157.699 285.297,157.866 285.714,158.071 285.714 C 158.275 285.714,158.442 286.048,158.442 286.456 C 158.442 286.865,158.603 287.199,158.801 287.199 C 158.999 287.199,159.071 287.432,158.961 287.718 C 158.852 288.003,158.940 288.347,159.158 288.482 C 159.376 288.616,159.555 289.134,159.555 289.632 C 159.555 290.130,159.722 290.538,159.926 290.538 C 160.130 290.538,160.297 290.872,160.297 291.280 C 160.297 291.688,160.464 292.022,160.668 292.022 C 160.872 292.022,161.039 292.356,161.039 292.764 C 161.039 293.173,161.206 293.506,161.410 293.506 C 161.614 293.506,161.781 293.924,161.781 294.434 C 161.781 294.944,161.929 295.362,162.111 295.362 C 162.292 295.362,162.550 295.946,162.684 296.660 C 162.818 297.375,163.087 297.959,163.282 297.959 C 163.477 297.959,163.636 298.460,163.636 299.072 C 163.636 299.685,163.803 300.186,164.007 300.186 C 164.212 300.186,164.378 300.519,164.378 300.928 C 164.378 301.336,164.545 301.670,164.750 301.670 C 164.954 301.670,165.121 302.087,165.121 302.597 C 165.121 303.108,165.288 303.525,165.492 303.525 C 165.696 303.525,165.863 303.859,165.863 304.267 C 165.863 304.675,166.016 305.009,166.204 305.009 C 166.392 305.009,166.653 305.552,166.783 306.215 C 167.046 307.548,168.486 310.690,168.924 310.884 C 169.077 310.952,169.202 311.495,169.202 312.090 C 169.202 312.686,169.369 313.173,169.573 313.173 C 169.777 313.173,169.944 313.423,169.944 313.729 C 169.944 314.035,170.101 314.286,170.293 314.286 C 170.484 314.286,170.754 315.037,170.891 315.955 C 171.029 316.874,171.290 317.625,171.471 317.625 C 171.652 317.625,171.800 317.959,171.800 318.367 C 171.800 318.776,171.967 319.109,172.171 319.109 C 172.375 319.109,172.542 319.443,172.542 319.852 C 172.542 320.260,172.709 320.594,172.913 320.594 C 173.117 320.594,173.284 321.011,173.284 321.521 C 173.284 322.032,173.415 322.449,173.576 322.449 C 173.737 322.449,174.196 323.534,174.597 324.861 C 174.997 326.187,175.450 327.273,175.603 327.273 C 175.756 327.273,175.881 327.607,175.881 328.015 C 175.881 328.423,176.048 328.757,176.252 328.757 C 176.456 328.757,176.623 329.174,176.623 329.685 C 176.623 330.195,176.790 330.612,176.994 330.612 C 177.199 330.612,177.365 330.946,177.365 331.354 C 177.365 331.763,177.532 332.096,177.737 332.096 C 177.941 332.096,178.108 332.403,178.108 332.777 C 178.108 333.151,178.233 333.582,178.386 333.735 C 178.539 333.888,178.683 334.125,178.705 334.261 C 178.940 335.679,179.375 336.920,179.638 336.920 C 179.817 336.920,179.963 337.171,179.963 337.477 C 179.963 337.783,180.130 338.033,180.334 338.033 C 180.538 338.033,180.705 338.534,180.705 339.147 C 180.705 339.759,180.872 340.260,181.076 340.260 C 181.280 340.260,181.447 340.510,181.447 340.816 C 181.447 341.122,181.596 341.373,181.777 341.373 C 181.958 341.373,182.219 341.999,182.356 342.764 C 182.657 344.440,183.378 346.197,183.764 346.197 C 183.918 346.197,184.045 346.698,184.045 347.310 C 184.045 347.922,184.212 348.423,184.416 348.423 C 184.620 348.423,184.787 348.673,184.787 348.980 C 184.787 349.286,184.954 349.536,185.158 349.536 C 185.362 349.536,185.529 349.870,185.529 350.278 C 185.529 350.686,185.677 351.020,185.858 351.020 C 186.039 351.020,186.299 351.772,186.437 352.690 C 186.575 353.609,186.844 354.360,187.036 354.360 C 187.227 354.360,187.384 354.694,187.384 355.102 C 187.384 355.510,187.551 355.844,187.755 355.844 C 187.959 355.844,188.126 356.262,188.126 356.772 C 188.126 357.282,188.293 357.699,188.497 357.699 C 188.701 357.699,188.868 358.033,188.868 358.442 C 188.868 358.850,189.035 359.184,189.239 359.184 C 189.443 359.184,189.610 359.518,189.610 359.926 C 189.610 360.334,189.758 360.668,189.939 360.668 C 190.120 360.668,190.381 361.419,190.519 362.338 C 190.656 363.256,190.926 364.007,191.117 364.007 C 191.309 364.007,191.466 364.258,191.466 364.564 C 191.466 364.870,191.633 365.121,191.837 365.121 C 192.041 365.121,192.208 365.455,192.208 365.863 C 192.208 366.271,192.375 366.605,192.579 366.605 C 192.783 366.605,192.950 366.868,192.950 367.191 C 192.950 367.513,193.653 368.473,194.513 369.324 L 196.077 370.872 200.200 371.003 C 203.609 371.111,204.427 371.030,204.918 370.539 C 205.245 370.212,205.692 369.944,205.910 369.944 C 206.129 369.944,206.308 369.761,206.308 369.537 C 206.308 369.312,206.809 368.661,207.421 368.089 C 208.033 367.517,208.534 366.796,208.534 366.487 C 208.534 366.178,208.712 365.865,208.929 365.793 C 209.147 365.720,209.419 364.955,209.535 364.092 C 209.651 363.229,209.890 362.523,210.067 362.523 C 210.245 362.523,210.390 362.189,210.390 361.781 C 210.390 361.373,210.557 361.039,210.761 361.039 C 210.965 361.039,211.132 360.788,211.132 360.482 C 211.132 360.176,211.299 359.926,211.503 359.926 C 211.707 359.926,211.874 359.425,211.874 358.813 C 211.874 358.200,212.001 357.699,212.157 357.699 C 212.544 357.699,213.729 354.901,213.729 353.986 C 213.729 353.580,213.896 353.247,214.100 353.247 C 214.304 353.247,214.471 352.913,214.471 352.505 C 214.471 352.096,214.638 351.763,214.842 351.763 C 215.046 351.763,215.213 351.262,215.213 350.649 C 215.213 350.037,215.380 349.536,215.584 349.536 C 215.788 349.536,215.955 349.286,215.955 348.980 C 215.955 348.673,216.122 348.423,216.327 348.423 C 216.531 348.423,216.698 348.099,216.698 347.703 C 216.698 347.307,216.850 346.888,217.036 346.773 C 217.223 346.658,217.488 345.897,217.626 345.082 C 217.763 344.266,218.028 343.599,218.214 343.599 C 218.401 343.599,218.553 343.265,218.553 342.857 C 218.553 342.449,218.720 342.115,218.924 342.115 C 219.128 342.115,219.295 341.698,219.295 341.187 C 219.295 340.677,219.462 340.260,219.666 340.260 C 219.870 340.260,220.037 339.926,220.037 339.518 C 220.037 339.109,220.204 338.776,220.408 338.776 C 220.612 338.776,220.779 338.451,220.779 338.055 C 220.779 337.659,220.932 337.241,221.118 337.126 C 221.304 337.011,221.569 336.249,221.707 335.434 C 221.845 334.619,222.068 333.950,222.203 333.949 C 222.554 333.945,223.377 332.074,223.377 331.280 C 223.377 330.913,223.502 330.611,223.655 330.609 C 224.031 330.605,224.861 328.770,224.861 327.941 C 224.861 327.573,225.009 327.273,225.191 327.273 C 225.372 327.273,225.630 326.688,225.764 325.974 C 225.898 325.260,226.167 324.675,226.362 324.675 C 226.557 324.675,226.716 324.174,226.716 323.562 C 226.716 322.950,226.883 322.449,227.087 322.449 C 227.291 322.449,227.458 322.199,227.458 321.892 C 227.458 321.586,227.625 321.336,227.829 321.336 C 228.033 321.336,228.200 321.012,228.200 320.616 C 228.200 320.219,228.345 319.806,228.523 319.696 C 228.700 319.587,228.952 318.825,229.084 318.005 C 229.215 317.184,229.487 316.512,229.689 316.512 C 229.891 316.512,230.056 316.178,230.056 315.770 C 230.056 315.362,230.223 315.028,230.427 315.028 C 230.631 315.028,230.798 314.610,230.798 314.100 C 230.798 313.590,230.965 313.173,231.169 313.173 C 231.373 313.173,231.540 312.839,231.540 312.430 C 231.540 312.022,231.707 311.688,231.911 311.688 C 232.115 311.688,232.282 311.354,232.282 310.946 C 232.282 310.538,232.430 310.204,232.611 310.204 C 232.792 310.204,233.053 309.453,233.190 308.534 C 233.328 307.616,233.597 306.865,233.789 306.865 C 233.981 306.865,234.137 306.447,234.137 305.937 C 234.137 305.427,234.304 305.009,234.508 305.009 C 234.712 305.009,234.879 304.675,234.879 304.267 C 234.879 303.859,235.046 303.525,235.250 303.525 C 235.455 303.525,235.622 303.191,235.622 302.783 C 235.622 302.375,235.788 302.041,235.993 302.041 C 236.197 302.041,236.364 301.623,236.364 301.113 C 236.364 300.603,236.531 300.186,236.735 300.186 C 236.939 300.186,237.107 299.893,237.108 299.536 C 237.109 299.179,237.360 298.409,237.665 297.824 C 237.969 297.239,238.219 296.460,238.219 296.092 C 238.219 295.725,238.344 295.368,238.497 295.300 C 238.960 295.094,240.445 292.002,240.445 291.245 C 240.445 290.856,240.605 290.538,240.800 290.538 C 240.994 290.538,241.263 289.954,241.397 289.239 C 241.531 288.525,241.789 287.941,241.971 287.941 C 242.152 287.941,242.301 287.523,242.301 287.013 C 242.301 286.503,242.468 286.085,242.672 286.085 C 242.876 286.085,243.043 285.751,243.043 285.343 C 243.043 284.935,243.210 284.601,243.414 284.601 C 243.618 284.601,243.785 284.118,243.785 283.528 C 243.785 281.930,241.177 282.004,297.782 282.004 C 332.597 282.004,350.684 281.877,350.835 281.633 C 350.961 281.429,352.223 281.262,353.640 281.262 C 355.109 281.262,356.215 281.102,356.215 280.891 C 356.215 280.686,356.967 280.519,357.885 280.519 C 358.803 280.519,359.555 280.353,359.555 280.148 C 359.555 279.944,360.129 279.777,360.832 279.777 C 361.534 279.777,362.212 279.610,362.338 279.406 C 362.464 279.202,362.975 279.035,363.473 279.035 C 363.971 279.035,364.378 278.887,364.378 278.706 C 364.378 278.525,365.130 278.265,366.048 278.127 C 366.967 277.989,367.718 277.720,367.718 277.528 C 367.718 277.337,368.052 277.180,368.460 277.180 C 368.868 277.180,369.202 277.013,369.202 276.809 C 369.202 276.605,369.583 276.438,370.048 276.438 C 370.513 276.438,371.134 276.104,371.429 275.696 C 371.723 275.288,372.261 274.954,372.624 274.954 C 372.987 274.954,373.284 274.800,373.284 274.612 C 373.284 274.424,373.762 274.165,374.347 274.037 C 374.932 273.909,375.759 273.478,376.187 273.080 C 376.614 272.682,377.128 272.356,377.329 272.356 C 377.530 272.356,377.913 272.047,378.179 271.669 C 378.446 271.292,379.249 270.684,379.963 270.319 C 380.677 269.955,381.512 269.329,381.818 268.929 C 382.124 268.529,382.754 267.842,383.217 267.403 C 383.680 266.964,384.598 266.057,385.258 265.386 C 385.917 264.716,387.166 263.474,388.033 262.626 C 388.901 261.778,389.610 260.865,389.610 260.598 C 389.610 260.330,389.766 260.111,389.956 260.111 C 390.147 260.111,390.421 259.736,390.566 259.276 C 390.711 258.817,391.140 258.172,391.519 257.841 C 391.898 257.511,392.208 257.006,392.208 256.717 C 392.208 256.429,392.541 255.953,392.948 255.660 C 393.355 255.366,393.792 254.578,393.917 253.908 C 394.043 253.238,394.294 252.690,394.475 252.690 C 394.657 252.690,394.805 252.356,394.805 251.948 C 394.805 251.540,394.972 251.206,395.176 251.206 C 395.380 251.206,395.547 250.955,395.547 250.649 C 395.547 250.343,395.714 250.093,395.918 250.093 C 396.122 250.093,396.289 249.759,396.289 249.351 C 396.289 248.942,396.456 248.609,396.660 248.609 C 396.865 248.609,397.032 248.201,397.032 247.703 C 397.032 247.205,397.183 246.704,397.368 246.589 C 397.553 246.475,397.819 245.547,397.959 244.527 C 398.099 243.507,398.366 242.579,398.551 242.465 C 398.735 242.350,398.887 241.696,398.887 241.011 C 398.887 240.326,399.096 239.695,399.351 239.610 C 399.720 239.487,399.814 219.324,399.814 140.445 C 399.814 61.567,399.720 41.403,399.351 41.280 C 399.085 41.192,398.887 40.505,398.887 39.672 C 398.887 38.873,398.741 38.219,398.563 38.219 C 398.385 38.219,398.128 37.509,397.992 36.642 C 397.711 34.859,396.990 33.024,396.570 33.024 C 396.416 33.024,396.289 32.523,396.289 31.911 C 396.289 31.299,396.122 30.798,395.918 30.798 C 395.714 30.798,395.547 30.547,395.547 30.241 C 395.547 29.935,395.380 29.685,395.176 29.685 C 394.972 29.685,394.805 29.351,394.805 28.942 C 394.805 28.534,394.657 28.200,394.475 28.200 C 394.294 28.200,394.043 27.652,393.917 26.982 C 393.792 26.312,393.355 25.524,392.948 25.231 C 392.541 24.937,392.208 24.437,392.208 24.119 C 392.208 23.801,391.874 23.300,391.466 23.006 C 391.058 22.711,390.724 22.265,390.724 22.013 C 390.724 21.761,390.306 21.138,389.796 20.627 C 389.286 20.117,388.868 19.567,388.869 19.405 C 388.869 19.242,388.379 18.609,387.780 17.996 C 384.535 14.681,383.141 13.358,382.890 13.358 C 382.736 13.358,382.513 13.051,382.394 12.675 C 382.274 12.300,381.721 11.757,381.163 11.469 C 380.605 11.182,379.945 10.779,379.697 10.575 C 379.449 10.371,378.997 9.995,378.693 9.740 C 378.388 9.485,378.002 9.276,377.834 9.276 C 377.666 9.276,377.289 8.942,376.994 8.534 C 376.700 8.126,376.199 7.792,375.881 7.792 C 375.563 7.792,375.063 7.459,374.769 7.052 C 374.476 6.645,373.688 6.208,373.018 6.083 C 372.348 5.957,371.800 5.706,371.800 5.525 C 371.800 5.343,371.549 5.195,371.243 5.195 C 370.937 5.195,370.686 5.028,370.686 4.824 C 370.686 4.620,370.353 4.453,369.944 4.453 C 369.536 4.453,369.202 4.286,369.202 4.082 C 369.202 3.878,368.868 3.711,368.460 3.711 C 368.052 3.711,367.718 3.544,367.718 3.340 C 367.718 3.135,367.328 2.968,366.852 2.968 C 366.376 2.968,365.861 2.843,365.708 2.690 C 365.555 2.537,365.318 2.396,365.182 2.376 C 363.173 2.081,361.781 1.697,361.781 1.437 C 361.781 1.259,361.127 1.113,360.328 1.113 C 359.495 1.113,358.808 0.915,358.720 0.649 C 358.575 0.214,48.313 -0.158,42.950 0.271 M136.549 82.746 C 136.549 82.950,137.458 83.117,138.568 83.117 C 139.678 83.117,140.690 83.284,140.816 83.488 C 140.942 83.692,141.704 83.859,142.508 83.859 C 143.312 83.859,143.970 84.026,143.970 84.230 C 143.970 84.434,144.429 84.602,144.991 84.603 C 145.552 84.605,146.489 84.855,147.074 85.160 C 147.659 85.465,148.452 85.714,148.836 85.714 C 149.221 85.714,149.536 85.881,149.536 86.085 C 149.536 86.289,149.870 86.456,150.278 86.456 C 150.686 86.456,151.020 86.623,151.020 86.827 C 151.020 87.032,151.271 87.199,151.577 87.199 C 151.883 87.199,152.134 87.340,152.134 87.513 C 152.134 87.686,152.801 88.129,153.618 88.497 C 154.434 88.865,155.102 89.308,155.102 89.481 C 155.102 89.654,155.276 89.796,155.488 89.796 C 155.991 89.796,159.555 93.418,159.555 93.929 C 159.555 94.145,160.056 94.790,160.668 95.362 C 161.280 95.934,161.781 96.548,161.781 96.727 C 161.781 96.907,162.100 97.283,162.491 97.565 C 162.881 97.846,163.141 98.384,163.069 98.760 C 162.996 99.136,163.094 99.443,163.287 99.443 C 163.479 99.443,163.636 99.694,163.636 100.000 C 163.636 100.306,163.803 100.557,164.007 100.557 C 164.212 100.557,164.378 101.058,164.378 101.670 C 164.378 102.282,164.545 102.783,164.750 102.783 C 164.954 102.783,165.121 103.200,165.121 103.711 C 165.121 104.221,165.288 104.638,165.492 104.638 C 165.696 104.638,165.863 105.125,165.863 105.720 C 165.863 106.316,166.071 106.872,166.327 106.957 C 166.693 107.079,166.814 115.177,166.901 145.393 L 167.011 183.673 155.862 183.673 L 144.712 183.673 144.712 148.237 C 144.712 124.861,144.586 112.801,144.341 112.801 C 144.137 112.801,143.970 112.551,143.970 112.245 C 143.970 111.939,143.803 111.688,143.599 111.688 C 143.395 111.688,143.228 111.422,143.228 111.097 C 143.228 110.773,142.894 110.082,142.486 109.563 C 142.078 109.044,141.744 108.751,141.744 108.912 C 141.744 109.073,141.432 108.845,141.051 108.406 C 140.670 107.966,140.103 107.607,139.792 107.607 C 139.481 107.607,139.135 107.369,139.023 107.078 C 138.829 106.572,137.763 106.000,135.158 105.008 L 133.952 104.548 133.952 93.461 L 133.952 82.375 135.250 82.375 C 135.965 82.375,136.549 82.542,136.549 82.746 M72.356 104.453 C 72.356 117.296,72.479 123.191,72.746 123.191 C 72.960 123.191,74.210 122.106,75.524 120.779 C 76.837 119.453,78.165 118.367,78.474 118.367 C 78.783 118.367,79.035 118.240,79.035 118.084 C 79.035 117.739,81.790 116.512,82.563 116.512 C 82.868 116.512,83.117 116.345,83.117 116.141 C 83.117 115.937,83.701 115.770,84.416 115.770 C 85.130 115.770,85.714 115.603,85.714 115.399 C 85.714 115.195,86.299 115.028,87.013 115.028 C 87.727 115.028,88.312 114.861,88.312 114.657 C 88.312 114.427,90.291 114.286,93.506 114.286 C 96.722 114.286,98.701 114.427,98.701 114.657 C 98.701 114.861,99.286 115.028,100.000 115.028 C 100.714 115.028,101.299 115.195,101.299 115.399 C 101.299 115.603,101.790 115.770,102.390 115.770 C 102.990 115.770,103.575 115.922,103.691 116.109 C 103.806 116.295,104.567 116.560,105.382 116.698 C 106.198 116.836,106.865 117.101,106.865 117.287 C 106.865 117.473,107.199 117.625,107.607 117.625 C 108.015 117.625,108.349 117.792,108.349 117.996 C 108.349 118.200,108.599 118.367,108.905 118.367 C 109.212 118.367,109.462 118.534,109.462 118.738 C 109.462 118.942,109.796 119.109,110.204 119.109 C 110.612 119.109,110.946 119.265,110.946 119.456 C 110.946 119.646,111.302 119.914,111.736 120.052 C 112.614 120.331,117.625 125.222,117.625 125.800 C 117.625 126.001,118.138 126.703,118.764 127.358 C 119.390 128.013,119.996 129.014,120.109 129.581 C 120.223 130.148,120.430 130.612,120.571 130.612 C 120.711 130.612,121.056 131.197,121.336 131.911 C 121.616 132.625,121.981 133.210,122.147 133.210 C 122.313 133.210,122.449 133.711,122.449 134.323 C 122.449 134.935,122.597 135.436,122.778 135.436 C 123.151 135.436,123.611 137.347,123.601 138.856 C 123.597 139.411,123.754 139.963,123.949 140.084 C 124.144 140.205,124.304 141.129,124.304 142.137 C 124.304 143.145,124.471 143.970,124.675 143.970 C 124.909 143.970,125.046 146.382,125.046 150.464 C 125.046 154.123,124.899 156.957,124.708 156.957 C 124.522 156.957,124.285 157.917,124.180 159.091 C 123.857 162.714,123.205 165.863,122.778 165.863 C 122.597 165.863,122.449 166.183,122.449 166.574 C 122.449 166.965,122.318 167.341,122.157 167.409 C 121.996 167.477,121.405 168.451,120.843 169.573 C 120.281 170.696,119.620 171.934,119.373 172.325 C 118.655 173.462,113.949 178.108,113.515 178.108 C 112.967 178.108,112.044 179.081,112.324 179.362 C 112.451 179.488,112.204 179.592,111.777 179.592 C 111.349 179.592,110.749 179.842,110.443 180.148 C 110.136 180.455,109.624 180.705,109.303 180.705 C 108.982 180.705,108.720 180.872,108.720 181.076 C 108.720 181.280,108.469 181.447,108.163 181.447 C 107.857 181.447,107.607 181.614,107.607 181.818 C 107.607 182.022,107.273 182.189,106.865 182.189 C 106.456 182.189,106.122 182.356,106.122 182.560 C 106.122 182.764,105.705 182.931,105.195 182.931 C 104.685 182.931,104.267 183.079,104.267 183.260 C 104.267 183.440,103.349 183.703,102.226 183.843 C 101.104 183.983,100.186 184.253,100.186 184.442 C 100.186 184.632,99.444 184.787,98.538 184.787 C 97.631 184.787,96.787 184.954,96.660 185.158 C 96.529 185.370,94.623 185.529,92.208 185.529 C 89.792 185.529,87.886 185.370,87.755 185.158 C 87.629 184.954,86.951 184.787,86.249 184.787 C 85.547 184.787,84.972 184.639,84.972 184.458 C 84.972 184.277,84.221 184.016,83.302 183.878 C 82.384 183.741,81.633 183.471,81.633 183.280 C 81.633 183.088,81.299 182.931,80.891 182.931 C 80.482 182.931,80.148 182.764,80.148 182.560 C 80.148 182.356,79.898 182.189,79.592 182.189 C 79.286 182.189,79.035 182.022,79.035 181.818 C 79.035 181.614,78.777 181.447,78.462 181.447 C 78.146 181.447,77.471 181.030,76.961 180.519 C 76.450 180.009,75.857 179.592,75.642 179.592 C 75.427 179.592,74.783 179.091,74.212 178.479 C 72.626 176.781,72.356 177.023,72.356 180.148 L 72.356 182.931 60.668 182.931 L 48.980 182.931 48.980 134.323 L 48.980 85.714 60.668 85.714 L 72.356 85.714 72.356 104.453 M309.462 113.915 C 309.462 114.124,310.513 114.286,311.874 114.286 C 313.234 114.286,314.286 114.447,314.286 114.657 C 314.286 114.861,314.693 115.028,315.191 115.028 C 315.690 115.028,316.200 115.195,316.327 115.399 C 316.453 115.603,316.963 115.770,317.462 115.770 C 317.960 115.770,318.367 115.918,318.367 116.100 C 318.367 116.281,318.915 116.532,319.585 116.658 C 320.255 116.784,321.043 117.220,321.337 117.627 C 321.631 118.034,322.070 118.367,322.313 118.367 C 322.556 118.367,323.851 119.453,325.190 120.779 C 328.360 123.918,328.386 123.908,328.386 119.481 L 328.386 115.770 339.703 115.770 L 351.020 115.770 351.020 153.061 C 351.020 177.675,350.894 190.353,350.649 190.353 C 350.445 190.353,350.278 191.271,350.278 192.393 C 350.278 193.516,350.111 194.434,349.907 194.434 C 349.703 194.434,349.536 195.019,349.536 195.733 C 349.536 196.447,349.369 197.032,349.165 197.032 C 348.961 197.032,348.794 197.532,348.794 198.145 C 348.794 198.757,348.647 199.258,348.466 199.258 C 348.139 199.258,347.624 200.431,347.488 201.484 C 347.362 202.462,346.824 203.508,346.130 204.125 C 345.758 204.455,345.455 204.998,345.455 205.331 C 345.455 205.664,345.288 205.937,345.083 205.937 C 344.879 205.937,344.712 206.179,344.712 206.476 C 344.712 206.772,344.128 207.582,343.414 208.276 C 342.699 208.969,342.115 209.812,342.115 210.149 C 342.115 210.485,341.956 210.761,341.761 210.761 C 341.566 210.761,340.989 211.178,340.479 211.688 C 339.969 212.199,339.444 212.616,339.312 212.616 C 339.181 212.616,338.605 213.117,338.033 213.729 C 337.461 214.341,336.721 214.842,336.389 214.842 C 336.056 214.842,335.688 215.093,335.570 215.399 C 335.453 215.705,335.041 215.955,334.654 215.955 C 334.268 215.955,333.952 216.122,333.952 216.327 C 333.952 216.531,333.618 216.698,333.210 216.698 C 332.801 216.698,332.468 216.865,332.468 217.069 C 332.468 217.273,332.050 217.440,331.540 217.440 C 331.030 217.440,330.612 217.607,330.612 217.811 C 330.612 218.015,330.111 218.182,329.499 218.182 C 328.887 218.182,328.386 218.330,328.386 218.511 C 328.386 218.931,326.476 219.306,324.212 219.332 C 323.242 219.343,322.449 219.506,322.449 219.694 C 322.449 219.893,319.174 220.037,314.657 220.037 L 306.865 220.037 306.865 209.647 L 306.865 199.258 311.509 199.258 C 315.836 199.258,319.109 198.740,319.109 198.054 C 319.109 197.900,319.360 197.774,319.666 197.774 C 319.972 197.774,320.223 197.607,320.223 197.403 C 320.223 197.199,320.490 197.032,320.816 197.032 C 321.485 197.032,323.562 194.959,323.562 194.291 C 323.562 194.052,323.896 193.615,324.304 193.321 C 324.712 193.027,325.046 192.489,325.046 192.126 C 325.046 191.763,325.213 191.466,325.417 191.466 C 325.622 191.466,325.788 191.215,325.788 190.909 C 325.788 190.603,325.955 190.353,326.160 190.353 C 326.364 190.353,326.531 189.865,326.531 189.270 C 326.531 188.675,326.722 188.124,326.957 188.046 C 327.718 187.792,327.895 176.623,327.138 176.623 C 326.804 176.623,326.531 176.879,326.531 177.191 C 326.531 177.888,322.922 181.447,322.216 181.447 C 321.936 181.447,321.707 181.614,321.707 181.818 C 321.707 182.022,321.373 182.189,320.965 182.189 C 320.557 182.189,320.223 182.356,320.223 182.560 C 320.223 182.764,319.986 182.931,319.697 182.931 C 319.408 182.931,319.115 183.101,319.045 183.309 C 318.976 183.517,318.044 183.791,316.974 183.917 C 315.903 184.044,315.028 184.292,315.028 184.467 C 315.028 184.643,314.276 184.787,313.358 184.787 C 312.440 184.787,311.688 184.954,311.688 185.158 C 311.688 185.389,309.586 185.529,306.122 185.529 C 302.659 185.529,300.557 185.389,300.557 185.158 C 300.557 184.954,299.972 184.787,299.258 184.787 C 298.544 184.787,297.959 184.632,297.959 184.442 C 297.959 184.253,297.041 183.983,295.918 183.843 C 294.796 183.703,293.878 183.440,293.878 183.260 C 293.878 183.079,293.544 182.931,293.135 182.931 C 292.727 182.931,292.393 182.764,292.393 182.560 C 292.393 182.356,292.143 182.189,291.837 182.189 C 291.531 182.189,291.280 182.022,291.280 181.818 C 291.280 181.614,290.946 181.447,290.538 181.447 C 290.130 181.447,289.796 181.280,289.796 181.076 C 289.796 180.872,289.480 180.705,289.094 180.705 C 288.707 180.705,288.295 180.455,288.178 180.148 C 288.060 179.842,287.704 179.592,287.387 179.592 C 286.663 179.592,280.519 173.436,280.519 172.711 C 280.519 172.417,280.186 171.968,279.777 171.714 C 279.369 171.459,279.035 170.956,279.035 170.597 C 279.035 170.238,278.868 169.944,278.664 169.944 C 278.460 169.944,278.293 169.610,278.293 169.202 C 278.293 168.794,278.126 168.460,277.922 168.460 C 277.718 168.460,277.551 168.043,277.551 167.532 C 277.551 167.022,277.408 166.605,277.232 166.605 C 277.057 166.605,276.699 165.394,276.438 163.915 C 275.871 160.706,275.505 141.373,276.012 141.373 C 276.199 141.373,276.468 140.288,276.610 138.961 C 276.752 137.635,277.022 136.549,277.209 136.549 C 277.397 136.549,277.551 136.132,277.551 135.622 C 277.551 135.111,277.718 134.694,277.922 134.694 C 278.126 134.694,278.293 134.360,278.293 133.952 C 278.293 133.544,278.460 133.210,278.664 133.210 C 278.868 133.210,279.035 132.876,279.035 132.468 C 279.035 132.059,279.160 131.725,279.314 131.724 C 279.467 131.723,279.915 130.930,280.311 129.962 C 280.707 128.993,281.500 127.758,282.074 127.217 C 282.647 126.676,283.117 126.037,283.117 125.798 C 283.117 125.306,286.642 121.707,287.124 121.707 C 287.295 121.707,287.799 121.289,288.242 120.779 C 288.686 120.269,289.347 119.852,289.712 119.852 C 290.076 119.852,290.615 119.518,290.909 119.109 C 291.203 118.701,291.658 118.367,291.919 118.367 C 292.180 118.367,292.393 118.200,292.393 117.996 C 292.393 117.792,292.727 117.625,293.135 117.625 C 293.544 117.625,293.878 117.477,293.878 117.296 C 293.878 117.115,294.629 116.855,295.547 116.717 C 296.466 116.579,297.217 116.310,297.217 116.118 C 297.217 115.927,297.792 115.770,298.494 115.770 C 299.196 115.770,299.874 115.603,300.000 115.399 C 300.126 115.195,300.804 115.028,301.506 115.028 C 302.208 115.028,302.783 114.861,302.783 114.657 C 302.783 114.445,303.896 114.286,305.380 114.286 C 306.865 114.286,307.978 114.127,307.978 113.915 C 307.978 113.711,308.312 113.544,308.720 113.544 C 309.128 113.544,309.462 113.711,309.462 113.915 M228.942 115.363 C 228.942 115.547,229.736 115.788,230.705 115.897 C 233.607 116.223,237.106 117.004,237.106 117.325 C 237.106 117.490,237.523 117.625,238.033 117.625 C 238.544 117.625,238.961 117.792,238.961 117.996 C 238.961 118.200,239.295 118.367,239.703 118.367 C 240.111 118.367,240.445 118.495,240.445 118.651 C 240.445 118.975,243.180 120.223,243.891 120.223 C 244.151 120.223,244.604 120.557,244.898 120.965 C 245.192 121.373,245.564 121.707,245.725 121.707 C 245.886 121.707,246.542 122.208,247.183 122.820 C 247.823 123.432,248.484 123.933,248.651 123.933 C 249.110 123.933,253.803 128.699,253.803 129.166 C 253.803 129.389,254.304 130.040,254.917 130.612 C 255.529 131.184,256.030 131.836,256.030 132.060 C 256.030 132.284,256.185 132.468,256.376 132.468 C 256.728 132.468,257.350 133.909,257.216 134.416 C 257.176 134.569,257.279 134.694,257.445 134.694 C 257.611 134.694,257.976 135.278,258.256 135.993 C 258.536 136.707,258.901 137.291,259.067 137.291 C 259.233 137.291,259.369 137.625,259.369 138.033 C 259.369 138.442,259.536 138.776,259.740 138.776 C 259.944 138.776,260.111 139.193,260.111 139.703 C 260.111 140.213,260.266 140.631,260.455 140.631 C 260.643 140.631,260.916 142.137,261.060 143.978 C 261.204 145.820,261.467 147.416,261.644 147.525 C 262.062 147.784,262.067 152.876,261.649 152.876 C 261.474 152.876,261.215 154.420,261.074 156.308 C 260.932 158.196,260.658 159.796,260.464 159.864 C 260.270 159.932,260.111 160.391,260.111 160.884 C 260.111 161.378,259.944 161.781,259.740 161.781 C 259.536 161.781,259.369 162.101,259.369 162.492 C 259.369 162.883,259.244 163.259,259.091 163.327 C 258.607 163.542,257.133 166.660,257.350 167.011 C 257.464 167.196,257.381 167.347,257.165 167.347 C 256.949 167.347,256.772 167.530,256.772 167.755 C 256.772 167.979,256.271 168.630,255.659 169.202 C 255.046 169.774,254.545 170.414,254.545 170.623 C 254.545 171.121,248.301 177.365,247.803 177.365 C 247.594 177.365,246.954 177.866,246.382 178.479 C 245.810 179.091,245.217 179.592,245.064 179.592 C 244.587 179.592,240.637 181.590,240.507 181.897 C 240.439 182.058,240.063 182.189,239.672 182.189 C 239.281 182.189,238.961 182.356,238.961 182.560 C 238.961 182.764,238.617 182.931,238.197 182.931 C 237.777 182.931,237.528 183.085,237.644 183.273 C 237.760 183.460,236.768 183.730,235.439 183.872 C 234.111 184.015,233.024 184.279,233.024 184.459 C 233.024 184.639,232.356 184.787,231.540 184.787 C 230.724 184.787,230.056 184.954,230.056 185.158 C 230.056 185.391,227.582 185.529,223.377 185.529 C 219.171 185.529,216.698 185.391,216.698 185.158 C 216.698 184.954,215.956 184.787,215.050 184.787 C 214.143 184.787,213.308 184.635,213.194 184.450 C 213.080 184.265,212.151 183.999,211.131 183.859 C 210.111 183.719,209.276 183.453,209.276 183.268 C 209.276 183.083,208.776 182.931,208.163 182.931 C 207.551 182.931,207.050 182.764,207.050 182.560 C 207.050 182.356,206.800 182.189,206.494 182.189 C 206.187 182.189,205.937 182.022,205.937 181.818 C 205.937 181.614,205.603 181.447,205.195 181.447 C 204.787 181.447,204.453 181.280,204.453 181.076 C 204.453 180.872,204.119 180.705,203.711 180.705 C 203.302 180.705,202.968 180.549,202.968 180.359 C 202.968 180.169,202.593 179.894,202.134 179.749 C 201.674 179.604,201.029 179.176,200.699 178.797 C 200.369 178.418,199.907 178.108,199.672 178.108 C 199.437 178.108,198.525 177.356,197.645 176.438 C 196.766 175.519,195.766 174.768,195.425 174.768 C 195.084 174.768,194.805 174.498,194.805 174.167 C 194.805 173.836,194.054 172.846,193.135 171.966 C 192.217 171.086,191.466 170.180,191.466 169.954 C 191.466 169.727,191.048 169.091,190.538 168.540 C 190.028 167.990,189.610 167.330,189.610 167.072 C 189.610 166.815,189.443 166.605,189.239 166.605 C 189.035 166.605,188.868 166.271,188.868 165.863 C 188.868 165.455,188.701 165.121,188.497 165.121 C 188.293 165.121,188.126 164.870,188.126 164.564 C 188.126 164.258,187.959 164.007,187.755 164.007 C 187.551 164.007,187.384 163.673,187.384 163.265 C 187.384 162.857,187.236 162.523,187.056 162.523 C 186.875 162.523,186.613 161.605,186.472 160.482 C 186.332 159.360,186.063 158.442,185.873 158.442 C 185.684 158.442,185.529 157.690,185.529 156.772 C 185.529 155.853,185.362 155.102,185.158 155.102 C 184.689 155.102,184.653 146.486,185.120 145.993 C 185.303 145.799,185.540 144.972,185.647 144.156 C 185.980 141.611,186.726 138.776,187.062 138.776 C 187.239 138.776,187.384 138.275,187.384 137.662 C 187.384 137.050,187.551 136.549,187.755 136.549 C 187.959 136.549,188.126 136.299,188.126 135.993 C 188.126 135.686,188.293 135.436,188.497 135.436 C 188.701 135.436,188.868 135.102,188.868 134.694 C 188.868 134.286,189.009 133.952,189.181 133.952 C 189.353 133.952,189.808 133.367,190.193 132.653 C 190.578 131.939,191.021 131.354,191.179 131.354 C 191.337 131.354,191.466 131.103,191.466 130.797 C 191.466 130.127,198.338 123.191,199.001 123.191 C 199.256 123.191,199.706 122.857,200.000 122.449 C 200.294 122.041,200.747 121.707,201.006 121.707 C 201.266 121.707,201.686 121.373,201.941 120.965 C 202.196 120.557,202.614 120.223,202.870 120.223 C 203.576 120.223,206.308 118.974,206.308 118.651 C 206.308 118.495,206.642 118.367,207.050 118.367 C 207.458 118.367,207.792 118.200,207.792 117.996 C 207.792 117.792,208.210 117.625,208.720 117.625 C 209.230 117.625,209.647 117.477,209.647 117.297 C 209.647 117.116,210.566 116.854,211.688 116.714 C 212.811 116.573,213.729 116.304,213.729 116.114 C 213.729 115.925,214.647 115.770,215.770 115.770 C 216.892 115.770,217.811 115.603,217.811 115.399 C 217.811 115.168,219.913 115.028,223.377 115.028 C 226.443 115.028,228.942 115.178,228.942 115.363 M220.779 135.065 C 220.779 135.269,220.101 135.436,219.273 135.436 C 218.445 135.436,217.857 135.581,217.967 135.759 C 218.077 135.937,217.474 136.175,216.629 136.289 C 215.371 136.457,214.731 136.872,213.120 138.563 C 212.035 139.700,211.010 140.631,210.840 140.631 C 210.506 140.631,209.276 143.208,209.276 143.909 C 209.276 144.147,209.109 144.341,208.905 144.341 C 208.701 144.341,208.534 144.759,208.534 145.269 C 208.534 145.779,208.367 146.197,208.163 146.197 C 207.938 146.197,207.792 147.805,207.792 150.278 C 207.792 152.752,207.938 154.360,208.163 154.360 C 208.367 154.360,208.534 154.777,208.534 155.288 C 208.534 155.798,208.701 156.215,208.905 156.215 C 209.109 156.215,209.289 156.507,209.304 156.865 C 209.318 157.222,209.651 158.015,210.042 158.627 C 210.433 159.239,210.872 159.990,211.017 160.296 C 211.331 160.955,212.855 162.523,213.182 162.523 C 213.308 162.523,213.662 162.774,213.968 163.080 C 214.274 163.386,214.846 163.636,215.240 163.636 C 215.633 163.636,215.955 163.803,215.955 164.007 C 215.955 164.212,216.289 164.378,216.698 164.378 C 217.106 164.378,217.440 164.545,217.440 164.750 C 217.440 164.954,217.857 165.121,218.367 165.121 C 218.878 165.121,219.295 165.288,219.295 165.492 C 219.295 165.714,220.779 165.863,223.006 165.863 C 225.232 165.863,226.716 165.714,226.716 165.492 C 226.716 165.288,227.301 165.121,228.015 165.121 C 228.729 165.121,229.314 164.954,229.314 164.750 C 229.314 164.545,229.647 164.378,230.056 164.378 C 230.464 164.378,230.798 164.212,230.798 164.007 C 230.798 163.803,231.125 163.636,231.525 163.636 C 231.925 163.636,232.468 163.372,232.731 163.049 C 232.994 162.727,233.983 161.683,234.927 160.730 C 236.826 158.816,237.477 157.763,237.477 156.611 C 237.477 156.189,237.644 155.844,237.848 155.844 C 238.052 155.844,238.219 155.176,238.219 154.360 C 238.219 153.544,238.386 152.876,238.590 152.876 C 238.802 152.876,238.961 151.763,238.961 150.278 C 238.961 148.794,238.802 147.681,238.590 147.681 C 238.386 147.681,238.219 147.013,238.219 146.197 C 238.219 145.380,238.060 144.712,237.865 144.712 C 237.670 144.712,237.401 144.128,237.267 143.414 C 237.133 142.699,236.875 142.115,236.693 142.115 C 236.512 142.115,236.364 141.930,236.364 141.704 C 236.364 141.168,232.487 137.291,231.951 137.291 C 231.725 137.291,231.540 137.143,231.540 136.962 C 231.540 136.780,230.955 136.522,230.241 136.388 C 229.527 136.254,228.942 135.985,228.942 135.790 C 228.942 135.595,228.275 135.436,227.458 135.436 C 226.642 135.436,225.974 135.269,225.974 135.065 C 225.974 134.853,224.861 134.694,223.377 134.694 C 221.892 134.694,220.779 134.853,220.779 135.065 M310.204 135.758 C 310.204 135.935,309.498 136.175,308.635 136.291 C 307.772 136.407,307.007 136.679,306.934 136.896 C 306.862 137.114,306.550 137.291,306.240 137.291 C 305.764 137.291,304.999 137.992,303.203 140.074 C 303.027 140.278,302.526 140.691,302.091 140.991 C 301.655 141.291,301.299 141.834,301.299 142.197 C 301.299 142.560,301.142 142.857,300.950 142.857 C 300.759 142.857,300.489 143.609,300.352 144.527 C 300.214 145.445,299.953 146.197,299.772 146.197 C 299.591 146.197,299.443 148.200,299.443 150.649 C 299.443 153.098,299.589 155.102,299.767 155.102 C 299.945 155.102,300.192 155.734,300.315 156.507 C 300.439 157.280,300.878 158.275,301.290 158.718 C 301.703 159.161,302.041 159.620,302.041 159.737 C 302.041 160.022,304.552 162.523,304.838 162.523 C 304.961 162.523,305.313 162.774,305.619 163.080 C 305.925 163.386,306.497 163.636,306.891 163.636 C 307.285 163.636,307.607 163.803,307.607 164.007 C 307.607 164.212,308.024 164.378,308.534 164.378 C 309.045 164.378,309.462 164.545,309.462 164.750 C 309.462 164.954,310.380 165.121,311.503 165.121 C 312.625 165.121,313.544 165.288,313.544 165.492 C 313.544 165.696,313.878 165.863,314.286 165.863 C 314.694 165.863,315.028 165.696,315.028 165.492 C 315.028 165.286,316.017 165.121,317.254 165.121 C 318.491 165.121,319.481 164.956,319.481 164.750 C 319.481 164.545,319.814 164.378,320.223 164.378 C 320.631 164.378,320.965 164.232,320.965 164.054 C 320.965 163.875,321.479 163.626,322.107 163.501 C 323.534 163.215,327.237 159.456,327.529 157.995 C 327.643 157.424,327.883 156.957,328.061 156.957 C 328.240 156.957,328.386 156.623,328.386 156.215 C 328.386 155.807,328.553 155.473,328.757 155.473 C 328.961 155.473,329.128 154.638,329.128 153.618 C 329.128 152.597,329.295 151.763,329.499 151.763 C 329.703 151.763,329.870 151.095,329.870 150.278 C 329.870 149.462,329.703 148.794,329.499 148.794 C 329.295 148.794,329.128 148.043,329.128 147.124 C 329.128 146.206,328.961 145.455,328.757 145.455 C 328.553 145.455,328.386 145.037,328.386 144.527 C 328.386 144.017,328.219 143.599,328.015 143.599 C 327.811 143.599,327.644 143.277,327.644 142.884 C 327.644 142.490,327.393 141.918,327.087 141.611 C 326.781 141.305,326.531 140.954,326.531 140.830 C 326.531 140.544,324.029 138.033,323.745 138.033 C 323.627 138.033,323.169 137.696,322.726 137.283 C 322.283 136.870,321.288 136.432,320.515 136.308 C 319.742 136.184,319.109 135.938,319.109 135.760 C 319.109 135.582,317.106 135.436,314.657 135.436 C 312.208 135.436,310.204 135.581,310.204 135.758 M83.766 136.427 C 83.001 136.519,82.375 136.751,82.375 136.943 C 82.375 137.134,81.957 137.291,81.447 137.291 C 80.937 137.291,80.519 137.458,80.519 137.662 C 80.519 137.866,80.264 138.033,79.951 138.033 C 79.207 138.033,74.954 142.281,74.954 143.024 C 74.954 143.341,74.787 143.599,74.583 143.599 C 74.378 143.599,74.212 143.850,74.212 144.156 C 74.212 144.462,74.045 144.712,73.840 144.712 C 73.636 144.712,73.469 145.213,73.469 145.826 C 73.469 146.438,73.331 146.939,73.162 146.939 C 72.816 146.939,72.931 153.900,73.308 155.751 C 73.443 156.415,73.702 156.957,73.883 156.957 C 74.063 156.957,74.212 157.254,74.212 157.618 C 74.212 157.981,74.545 158.518,74.954 158.813 C 75.362 159.107,75.696 159.482,75.696 159.647 C 75.696 160.077,77.978 162.523,78.379 162.523 C 78.565 162.523,78.968 162.774,79.274 163.080 C 79.580 163.386,80.236 163.636,80.732 163.636 C 81.227 163.636,81.633 163.803,81.633 164.007 C 81.633 164.212,82.134 164.378,82.746 164.378 C 83.358 164.378,83.859 164.545,83.859 164.750 C 83.859 164.972,85.343 165.121,87.570 165.121 C 89.796 165.121,91.280 164.972,91.280 164.750 C 91.280 164.545,91.698 164.378,92.208 164.378 C 92.718 164.378,93.135 164.232,93.135 164.054 C 93.135 163.875,93.626 163.631,94.226 163.511 C 95.217 163.313,99.443 159.681,99.443 159.028 C 99.443 158.880,99.694 158.509,100.000 158.203 C 100.306 157.897,100.557 157.241,100.557 156.745 C 100.557 156.250,100.724 155.844,100.928 155.844 C 101.132 155.844,101.299 155.009,101.299 153.989 C 101.299 152.968,101.466 152.134,101.670 152.134 C 101.874 152.134,102.041 151.549,102.041 150.835 C 102.041 150.121,101.874 149.536,101.670 149.536 C 101.466 149.536,101.299 148.618,101.299 147.495 C 101.299 146.373,101.145 145.455,100.957 145.455 C 100.769 145.455,100.510 144.976,100.382 144.392 C 100.254 143.807,99.823 142.979,99.425 142.552 C 99.027 142.125,98.701 141.631,98.701 141.455 C 98.701 141.079,96.971 139.518,96.554 139.518 C 96.397 139.518,96.027 139.184,95.733 138.776 C 95.439 138.367,94.901 138.033,94.538 138.033 C 94.175 138.033,93.878 137.866,93.878 137.662 C 93.878 137.458,93.558 137.291,93.166 137.291 C 92.775 137.291,92.400 137.136,92.331 136.947 C 92.191 136.556,85.879 136.172,83.766 136.427 " stroke="none" fill="rgb(149, 157, 165)" fill-rule="evenodd"></path></g></svg>