<svg width="16" height="17" viewBox="0 0 16 17" fill="none" xmlns="http://www.w3.org/2000/svg">
<mask id="mask0_444_430" style="mask-type:alpha" maskUnits="userSpaceOnUse" x="0" y="0" width="16" height="17">
<rect y="0.5" width="16" height="16" fill="#D9D9D9"/>
</mask>
<g mask="url(#mask0_444_430)">
<path d="M3.96678 13.8337L4.61718 11.2001H2.33398L2.68358 9.8001H4.96678L5.61718 7.2001H3.00038L3.35078 5.8001H5.96678L6.61718 3.1665H8.03398L7.38358 5.8001H9.96678L10.6172 3.1665H12.034L11.3836 5.8001H13.6668L13.3172 7.2001H11.034L10.3836 9.8001H13.0004L12.65 11.2001H10.034L9.38358 13.8337H7.96678L8.61718 11.2001H6.03398L5.38358 13.8337H3.96678ZM6.38358 9.8001H8.96678L9.61718 7.2001H7.03398L6.38358 9.8001Z" fill="white"/>
</g>
</svg>
