<svg width="1920" height="1080" viewBox="0 0 1920 1080" fill="none" xmlns="http://www.w3.org/2000/svg">
<path fill-rule="evenodd" clip-rule="evenodd" d="M0 0H1920V1080H0V0ZM835 415H1085V665H835V415ZM1052.99 548.521H1007.44C997.891 547.233 997.031 542.973 996.745 541.387V540.198V540.099C997.604 535.442 1001.04 532.866 1007.35 532.172H1052.9C1053.95 532.172 1054.81 531.281 1054.81 530.191C1054.81 529.101 1053.95 528.209 1052.9 528.209H1006.96C996.745 529.299 993.689 534.848 992.83 539.406C992.734 539.604 992.638 539.901 992.734 540.198L992.83 541.982V542.18C993.116 543.963 993.784 545.549 994.74 546.837L986.145 541.883L961.697 527.614C961.124 527.119 960.168 527.02 959.5 527.416L926.552 547.332V529.497C926.552 528.407 925.693 527.515 924.643 527.515L924.557 527.516C924.528 527.516 924.499 527.517 924.469 527.518C924.336 527.524 924.203 527.545 924.07 527.614C923.783 527.614 923.497 527.713 923.305 527.812L894.083 542.279C893.892 542.378 893.796 542.477 893.7 542.576L890.549 544.162L893.892 545.945C893.999 546.019 894.106 546.066 894.213 546.095C894.392 546.143 894.572 546.143 894.751 546.143C895.038 546.143 895.419 546.143 895.706 545.945L922.637 532.47V550.503C922.637 551.098 922.924 551.593 923.305 551.989C923.878 552.782 924.929 552.881 925.789 552.485L937.439 545.45H937.535L944.125 541.387L960.551 531.479L977.836 541.387H947.467L940.782 545.45H984.712L997.318 552.782C998.273 553.277 999.419 552.98 999.992 551.989C1000.18 551.593 1000.28 551.197 1000.18 550.8C1002.09 551.593 1004.39 552.188 1007.06 552.485H1053.09C1054.14 552.485 1055 551.593 1055 550.503C1055 549.413 1054.14 548.521 1053.09 548.521H1052.99ZM866.865 527.218C865.91 526.723 864.764 527.119 864.287 528.11C864.226 528.297 864.166 528.484 864.13 528.672C864.109 528.782 864.095 528.892 864.095 529.002C864 529.2 864 529.398 864 529.596V550.701C864 551.791 864.86 552.683 865.91 552.683C866.96 552.683 867.82 551.791 867.82 550.701V532.271L888.639 543.171L893.032 540.892L866.865 527.218ZM930.107 537.721C930.871 538.117 931.731 538.316 932.686 538.316C933.641 538.316 934.596 538.117 935.36 537.721C936.124 537.325 936.506 536.829 936.506 536.334C936.506 535.739 936.124 535.343 935.36 534.947C934.596 534.55 933.736 534.352 932.686 534.352C931.635 534.352 930.776 534.55 930.107 534.947C929.343 535.343 929.057 535.739 929.057 536.334C929.057 536.928 929.439 537.424 930.107 537.721ZM983.301 537.721C984.065 538.117 984.924 538.316 985.975 538.316C987.025 538.316 987.885 538.117 988.553 537.721C989.317 537.325 989.604 536.829 989.604 536.334C989.604 535.739 989.222 535.244 988.553 534.947C987.885 534.649 986.93 534.352 985.975 534.352C984.924 534.352 984.065 534.55 983.301 534.947C982.537 535.343 982.25 535.838 982.25 536.334C982.25 536.829 982.632 537.325 983.301 537.721Z" fill="black"/>
</svg>
