<svg width="301" height="40" viewBox="0 0 301 40" fill="none" xmlns="http://www.w3.org/2000/svg">
<g clip-path="url(#clip0_5_16)">
<path d="M106.008 16.5513C107.208 17.1513 108.558 17.4513 110.058 17.4513C111.558 17.4513 113.058 17.1513 114.258 16.5513C115.458 15.9513 116.058 15.2013 116.058 14.4513C116.058 13.5513 115.458 12.9513 114.258 12.3513C113.058 11.7513 111.708 11.4513 110.058 11.4513C108.408 11.4513 107.058 11.7513 106.008 12.3513C104.808 12.9513 104.358 13.5513 104.358 14.4513C104.358 15.3513 104.958 16.1013 106.008 16.5513ZM189.558 16.5513C190.758 17.1513 192.108 17.4513 193.758 17.4513C195.408 17.4513 196.758 17.1513 197.808 16.5513C199.008 15.9513 199.458 15.2013 199.458 14.4513C199.458 13.5513 198.858 12.8013 197.808 12.3513C196.758 11.9013 195.258 11.4513 193.758 11.4513C192.108 11.4513 190.758 11.7513 189.558 12.3513C188.358 12.9513 187.908 13.7013 187.908 14.4513C187.908 15.2013 188.508 15.9513 189.558 16.5513V16.5513Z" fill="black"/>
<path d="M297.258 32.9013H225.708C210.708 30.9513 209.358 24.5013 208.908 22.1013V20.3013V20.1513C210.258 13.1013 215.658 9.20128 225.558 8.15128H297.108C298.758 8.15128 300.108 6.80128 300.108 5.15128C300.108 3.50128 298.758 2.15128 297.108 2.15128H224.958C208.908 3.80128 204.108 12.2013 202.758 19.1013C202.608 19.4013 202.458 19.8513 202.608 20.3013L202.758 23.0013V23.3013C203.208 26.0013 204.258 28.4013 205.758 30.3513L192.258 22.8513L153.858 1.25128C152.958 0.501284 151.458 0.351284 150.408 0.951284L98.6578 31.1013V4.10128C98.6578 2.45128 97.3078 1.10128 95.6578 1.10128C95.3578 1.10128 95.0578 1.10128 94.7578 1.25128C94.3078 1.25128 93.8578 1.40128 93.5578 1.55128L47.6578 23.4513C47.3578 23.6013 47.2078 23.7513 47.0578 23.9013L42.1078 26.3013L47.3578 29.0013C47.8078 29.3013 48.2578 29.3013 48.7078 29.3013C49.1578 29.3013 49.7578 29.3013 50.2078 29.0013L92.5078 8.60128V35.9013C92.5078 36.8013 92.9578 37.5513 93.5578 38.1513C94.4578 39.3513 96.1078 39.5013 97.4578 38.9013L115.758 28.2513H115.908L126.258 22.1013L152.058 7.10128L179.208 22.1013H131.508L121.008 28.2513H190.008L209.808 39.3513C211.308 40.1013 213.108 39.6513 214.008 38.1513C214.308 37.5513 214.458 36.9513 214.308 36.3513C217.308 37.5513 220.908 38.4513 225.108 38.9013H297.408C299.058 38.9013 300.408 37.5513 300.408 35.9013C300.408 34.2513 299.058 32.9013 297.408 32.9013H297.258ZM4.90784 0.651284C3.40784 -0.0987159 1.60784 0.501284 0.857837 2.00128C0.707837 2.45128 0.557837 2.90128 0.557837 3.35128C0.407837 3.65128 0.407837 3.95128 0.407837 4.25128V36.2013C0.407837 37.8513 1.75784 39.2013 3.40784 39.2013C5.05784 39.2013 6.40784 37.8513 6.40784 36.2013V8.30129L39.1078 24.8013L46.0078 21.3513L4.90784 0.651284Z" fill="black"/>
</g>
<defs>
<clipPath id="clip0_5_16">
<rect width="300" height="39.36" fill="white" transform="translate(0.407837 0.321289)"/>
</clipPath>
</defs>
</svg>
