<svg width="57" height="57" viewBox="0 0 57 57" fill="none" xmlns="http://www.w3.org/2000/svg">
<rect width="57" height="57" rx="28.5" fill="#1D3666"/>
<path d="M30.1357 37.7334L29.0518 38.8174C28.5928 39.2764 27.8506 39.2764 27.3965 38.8174L17.9043 29.3301C17.4453 28.8711 17.4453 28.1289 17.9043 27.6748L27.3965 18.1826C27.8555 17.7236 28.5977 17.7236 29.0518 18.1826L30.1357 19.2666C30.5996 19.7305 30.5898 20.4873 30.1162 20.9414L24.2324 26.5469L38.2656 26.5469C38.915 26.5469 39.4375 27.0693 39.4375 27.7187L39.4375 29.2812C39.4375 29.9307 38.915 30.4531 38.2656 30.4531L24.2324 30.4531L30.1162 36.0586C30.5947 36.5127 30.6045 37.2695 30.1357 37.7334Z" fill="white"/>
</svg>
