<svg width="57" height="57" viewBox="0 0 57 57" fill="none" xmlns="http://www.w3.org/2000/svg">
<rect x="57" y="57" width="57" height="57" rx="28.5" transform="rotate(-180 57 57)" fill="#1D3666"/>
<path d="M26.8643 19.2666L27.9482 18.1826C28.4072 17.7236 29.1494 17.7236 29.6035 18.1826L39.0957 27.6699C39.5547 28.1289 39.5547 28.8711 39.0957 29.3252L29.6035 38.8174C29.1445 39.2764 28.4023 39.2764 27.9482 38.8174L26.8643 37.7334C26.4004 37.2695 26.4102 36.5127 26.8838 36.0586L32.7676 30.4531L18.7344 30.4531C18.085 30.4531 17.5625 29.9307 17.5625 29.2813L17.5625 27.7188C17.5625 27.0693 18.085 26.5469 18.7344 26.5469L32.7676 26.5469L26.8838 20.9414C26.4053 20.4873 26.3955 19.7305 26.8643 19.2666Z" fill="white"/>
</svg>
