<svg width="105" height="19" viewBox="0 0 105 19" fill="none" xmlns="http://www.w3.org/2000/svg">
<path d="M4.83 14.098C4.65267 14.098 4.508 14.056 4.396 13.972C4.284 13.888 4.19533 13.762 4.13 13.594L0.28 4.788C0.214667 4.62933 0.196 4.49867 0.224 4.396C0.252 4.284 0.312667 4.19533 0.406 4.13C0.508667 4.06467 0.625333 4.032 0.756 4.032C0.933333 4.032 1.064 4.074 1.148 4.158C1.24133 4.23267 1.316 4.34467 1.372 4.494L5.068 13.076H4.62L8.302 4.48C8.36733 4.34 8.44667 4.23267 8.54 4.158C8.63333 4.074 8.764 4.032 8.932 4.032C9.06267 4.032 9.17 4.06467 9.254 4.13C9.34733 4.19533 9.40333 4.284 9.422 4.396C9.45 4.508 9.43133 4.63867 9.366 4.788L5.516 13.594C5.45067 13.762 5.362 13.888 5.25 13.972C5.14733 14.056 5.00733 14.098 4.83 14.098ZM11.4443 14.098C11.2577 14.098 11.113 14.0467 11.0103 13.944C10.917 13.832 10.8703 13.6827 10.8703 13.496V4.634C10.8703 4.438 10.917 4.28867 11.0103 4.186C11.113 4.08333 11.2577 4.032 11.4443 4.032C11.631 4.032 11.771 4.08333 11.8643 4.186C11.967 4.28867 12.0183 4.438 12.0183 4.634V13.496C12.0183 13.6827 11.9717 13.832 11.8783 13.944C11.785 14.0467 11.6403 14.098 11.4443 14.098ZM15.096 14C14.8907 14 14.732 13.9487 14.62 13.846C14.5174 13.734 14.466 13.5753 14.466 13.37V4.76C14.466 4.55467 14.5174 4.40067 14.62 4.298C14.732 4.186 14.8907 4.13 15.096 4.13H20.304C20.4627 4.13 20.584 4.172 20.668 4.256C20.752 4.34 20.794 4.45667 20.794 4.606C20.794 4.76467 20.752 4.886 20.668 4.97C20.584 5.054 20.4627 5.096 20.304 5.096H15.586V8.512H20.01C20.1687 8.512 20.29 8.554 20.374 8.638C20.458 8.71267 20.5 8.82933 20.5 8.988C20.5 9.14667 20.458 9.268 20.374 9.352C20.29 9.436 20.1687 9.478 20.01 9.478H15.586V13.034H20.304C20.4627 13.034 20.584 13.076 20.668 13.16C20.752 13.244 20.794 13.3607 20.794 13.51C20.794 13.6687 20.752 13.79 20.668 13.874C20.584 13.958 20.4627 14 20.304 14H15.096ZM25.6965 14.098C25.5285 14.098 25.3931 14.056 25.2905 13.972C25.1878 13.8787 25.1038 13.7433 25.0385 13.566L21.9445 4.732C21.8791 4.536 21.8931 4.37267 21.9865 4.242C22.0891 4.102 22.2478 4.032 22.4625 4.032C22.6211 4.032 22.7471 4.074 22.8405 4.158C22.9338 4.23267 23.0131 4.354 23.0785 4.522L25.9765 13.02H25.4865L28.4405 4.564C28.5058 4.38667 28.5851 4.256 28.6785 4.172C28.7718 4.07867 28.8978 4.032 29.0565 4.032C29.2058 4.032 29.3225 4.07867 29.4065 4.172C29.4998 4.256 29.5791 4.38667 29.6445 4.564L32.5565 13.02H32.1225L35.0485 4.522C35.0951 4.36333 35.1651 4.242 35.2585 4.158C35.3611 4.074 35.4918 4.032 35.6505 4.032C35.8465 4.032 35.9911 4.09733 36.0845 4.228C36.1778 4.35867 36.1871 4.52667 36.1125 4.732L33.0045 13.566C32.9391 13.7433 32.8551 13.8787 32.7525 13.972C32.6591 14.056 32.5238 14.098 32.3465 14.098C32.1785 14.098 32.0431 14.056 31.9405 13.972C31.8471 13.8787 31.7631 13.7433 31.6885 13.566L28.8745 5.46H29.1825L26.3405 13.566C26.2751 13.7433 26.1958 13.8787 26.1025 13.972C26.0091 14.056 25.8738 14.098 25.6965 14.098ZM42.11 14.098C41.942 14.098 41.8114 14.0513 41.718 13.958C41.6247 13.8553 41.578 13.7153 41.578 13.538V4.592C41.578 4.40533 41.6247 4.26533 41.718 4.172C41.8114 4.07867 41.942 4.032 42.11 4.032C42.2594 4.032 42.376 4.06467 42.46 4.13C42.5534 4.186 42.6374 4.284 42.712 4.424L46.548 11.648H46.128L49.95 4.424C50.0247 4.284 50.104 4.186 50.188 4.13C50.272 4.06467 50.3934 4.032 50.552 4.032C50.7107 4.032 50.8367 4.07867 50.93 4.172C51.0234 4.26533 51.07 4.40533 51.07 4.592V13.538C51.07 13.7153 51.0234 13.8553 50.93 13.958C50.846 14.0513 50.7154 14.098 50.538 14.098C50.37 14.098 50.2394 14.0513 50.146 13.958C50.0527 13.8553 50.006 13.7153 50.006 13.538V5.67H50.342L46.842 12.236C46.7767 12.3573 46.7067 12.446 46.632 12.502C46.5667 12.5487 46.4687 12.572 46.338 12.572C46.2074 12.572 46.1047 12.544 46.03 12.488C45.9554 12.432 45.89 12.348 45.834 12.236L42.292 5.656H42.628V13.538C42.628 13.7153 42.5814 13.8553 42.488 13.958C42.404 14.0513 42.278 14.098 42.11 14.098ZM57.6706 14.126C56.7559 14.126 55.9579 13.9207 55.2766 13.51C54.6046 13.09 54.0819 12.502 53.7086 11.746C53.3446 10.99 53.1626 10.094 53.1626 9.058C53.1626 8.274 53.2653 7.574 53.4706 6.958C53.6853 6.33267 53.9886 5.80533 54.3806 5.376C54.7726 4.93733 55.2439 4.60133 55.7946 4.368C56.3546 4.12533 56.9799 4.004 57.6706 4.004C58.6039 4.004 59.4066 4.20933 60.0786 4.62C60.7599 5.03067 61.2826 5.614 61.6466 6.37C62.0199 7.11667 62.2066 8.008 62.2066 9.044C62.2066 9.828 62.0993 10.5327 61.8846 11.158C61.6699 11.7833 61.3666 12.3153 60.9746 12.754C60.5826 13.1927 60.1066 13.5333 59.5466 13.776C58.9959 14.0093 58.3706 14.126 57.6706 14.126ZM57.6706 13.104C58.3799 13.104 58.9773 12.9453 59.4626 12.628C59.9573 12.3107 60.3353 11.8487 60.5966 11.242C60.8579 10.6353 60.9886 9.90733 60.9886 9.058C60.9886 7.77933 60.6993 6.79 60.1206 6.09C59.5513 5.38067 58.7346 5.026 57.6706 5.026C56.9799 5.026 56.3873 5.18467 55.8926 5.502C55.4073 5.81933 55.0339 6.28133 54.7726 6.888C54.5113 7.48533 54.3806 8.20867 54.3806 9.058C54.3806 10.3273 54.6699 11.3213 55.2486 12.04C55.8273 12.7493 56.6346 13.104 57.6706 13.104ZM64.833 14.098C64.6463 14.098 64.5017 14.0467 64.399 13.944C64.3057 13.832 64.259 13.6827 64.259 13.496V4.718C64.259 4.522 64.3103 4.37733 64.413 4.284C64.5157 4.18133 64.6603 4.13 64.847 4.13H68.165C69.2197 4.13 70.0317 4.37733 70.601 4.872C71.1703 5.36667 71.455 6.07133 71.455 6.986C71.455 7.56467 71.3243 8.06867 71.063 8.498C70.811 8.918 70.4377 9.24 69.943 9.464C69.4483 9.67867 68.8557 9.786 68.165 9.786L68.305 9.604H68.585C68.949 9.604 69.2663 9.69733 69.537 9.884C69.8077 10.0707 70.055 10.3693 70.279 10.78L71.623 13.286C71.6977 13.4167 71.7303 13.5473 71.721 13.678C71.721 13.7993 71.679 13.902 71.595 13.986C71.511 14.0607 71.3897 14.098 71.231 14.098C71.0723 14.098 70.9417 14.0607 70.839 13.986C70.7363 13.9113 70.6477 13.804 70.573 13.664L69.047 10.836C68.8323 10.4347 68.585 10.1687 68.305 10.038C68.025 9.898 67.6563 9.828 67.199 9.828H65.407V13.496C65.407 13.6827 65.3603 13.832 65.267 13.944C65.1737 14.0467 65.029 14.098 64.833 14.098ZM65.407 8.918H67.997C68.7623 8.918 69.341 8.75933 69.733 8.442C70.125 8.11533 70.321 7.63 70.321 6.986C70.321 6.36067 70.125 5.88933 69.733 5.572C69.341 5.24533 68.7623 5.082 67.997 5.082H65.407V8.918ZM74.2542 14C74.0489 14 73.8903 13.9487 73.7783 13.846C73.6756 13.734 73.6243 13.5753 73.6243 13.37V4.76C73.6243 4.55467 73.6756 4.40067 73.7783 4.298C73.8903 4.186 74.0489 4.13 74.2542 4.13H79.4623C79.6209 4.13 79.7423 4.172 79.8263 4.256C79.9103 4.34 79.9523 4.45667 79.9523 4.606C79.9523 4.76467 79.9103 4.886 79.8263 4.97C79.7423 5.054 79.6209 5.096 79.4623 5.096H74.7443V8.512H79.1683C79.3269 8.512 79.4483 8.554 79.5323 8.638C79.6163 8.71267 79.6583 8.82933 79.6583 8.988C79.6583 9.14667 79.6163 9.268 79.5323 9.352C79.4483 9.436 79.3269 9.478 79.1683 9.478H74.7443V13.034H79.4623C79.6209 13.034 79.7423 13.076 79.8263 13.16C79.9103 13.244 79.9523 13.3607 79.9523 13.51C79.9523 13.6687 79.9103 13.79 79.8263 13.874C79.7423 13.958 79.6209 14 79.4623 14H74.2542Z" fill="#333333"/>
<path d="M99.8107 8.24991H90.375C90.1679 8.24991 90 8.41781 90 8.62491V10.3749C90 10.582 90.1679 10.7499 90.375 10.7499H99.8107V12.1893C99.8107 12.8574 100.619 13.1921 101.091 12.7196L103.78 10.0303C104.073 9.73735 104.073 9.26247 103.78 8.9696L101.091 6.28025C100.619 5.80778 99.8107 6.14241 99.8107 6.8106V8.24991V8.24991Z" fill="#333333"/>
</svg>
