<svg width="25" height="25" viewBox="0 0 25 25" fill="none" xmlns="http://www.w3.org/2000/svg">
<g clip-path="url(#clip0_109_336)">
<path d="M12.5 0.390625C5.81201 0.390625 0.390625 5.81201 0.390625 12.5C0.390625 19.188 5.81201 24.6094 12.5 24.6094C19.188 24.6094 24.6094 19.188 24.6094 12.5C24.6094 5.81201 19.188 0.390625 12.5 0.390625ZM11.9463 12.1206C11.8052 12.356 11.5508 12.5 11.2764 12.5H11.2612C11.0542 12.5 10.8555 12.5825 10.709 12.729L10.4326 13.0054C10.2803 13.1577 10.2803 13.4053 10.4326 13.5576L10.709 13.834C10.8555 13.9805 10.938 14.1792 10.938 14.3862V14.8438C10.938 15.2754 10.5884 15.625 10.1567 15.625H9.8584C9.5625 15.625 9.29199 15.458 9.15967 15.1929L8.05518 12.9844C7.93604 12.7461 7.61816 12.6943 7.42969 12.8828L6.479 13.833C6.33252 13.9795 6.13379 14.062 5.92676 14.062H2.87158C2.78906 13.5522 2.73438 13.0332 2.73438 12.5C2.73438 7.11523 7.11523 2.73438 12.5 2.73438C13.5503 2.73438 14.5605 2.90576 15.5093 3.21387L13.0601 5.09521C12.8105 5.26172 12.834 5.63525 13.1021 5.76953L13.6309 6.03369C13.8955 6.16602 14.0625 6.43652 14.0625 6.73242V10.5469C14.0625 10.7627 13.8877 10.9375 13.6719 10.9375H13.5225C13.3745 10.9375 13.2393 10.854 13.1733 10.7217C13.0972 10.5693 12.8823 10.561 12.7944 10.707L11.9463 12.1206V12.1206ZM20.3125 17.5015C20.3125 17.7085 20.23 17.9072 20.0835 18.0537L19.6162 18.521C19.4697 18.6675 19.271 18.75 19.064 18.75H18.3237C18.1167 18.75 17.918 18.6675 17.7715 18.521L17.1362 17.8857C16.9766 17.7261 16.7784 17.6106 16.5609 17.5504C16.3434 17.4901 16.114 17.4872 15.895 17.542L14.8564 17.8018C14.7944 17.8174 14.731 17.8252 14.667 17.8252H14.1621C13.9551 17.8252 13.7563 17.7427 13.6099 17.5962L13.0283 17.0146C12.9551 16.9413 12.914 16.8419 12.9141 16.7383V16.2402C12.9141 16.0806 13.0112 15.937 13.1597 15.8774L15.0806 15.1089C15.1772 15.0703 15.269 15.02 15.3535 14.96L16.5112 14.1353C16.5774 14.0881 16.6566 14.0629 16.7378 14.063H17.3281C17.4858 14.063 17.6284 14.1577 17.689 14.3037L17.9502 14.9312C17.965 14.9667 17.9901 14.9971 18.0221 15.0185C18.0542 15.0398 18.0918 15.0513 18.1304 15.0513H18.3159C18.4028 15.0513 18.4795 14.9937 18.5034 14.9106L18.7085 14.2041C18.7329 14.1206 18.8091 14.0635 18.896 14.0635H19.1919C19.2998 14.0635 19.3872 14.1509 19.3872 14.2588V14.8901C19.3872 14.9937 19.4282 15.0933 19.5015 15.1665L20.083 15.748C20.2295 15.8945 20.312 16.0933 20.312 16.3003V17.5015H20.3125Z" fill="black"/>
</g>
<defs>
<clipPath id="clip0_109_336">
<rect width="25" height="25" fill="white"/>
</clipPath>
</defs>
</svg>
