<svg width="25" height="25" viewBox="0 0 25 25" fill="none" xmlns="http://www.w3.org/2000/svg">
<path d="M4.86111 2.77783C2.17448 2.77783 0 4.95231 0 7.63894V17.3612C0 20.0478 2.17448 22.2223 4.86111 22.2223C7.54774 22.2223 9.72222 20.0478 9.72222 17.3612V7.63894C9.72222 4.95231 7.54774 2.77783 4.86111 2.77783ZM6.94444 12.5001H2.77778V7.63894C2.77778 6.48877 3.71094 5.55561 4.86111 5.55561C6.01128 5.55561 6.94444 6.48877 6.94444 7.63894V12.5001ZM13.0078 11.211C12.8559 11.0591 12.5998 11.0764 12.474 11.2457C10.5078 13.9584 10.7205 17.7605 13.1641 20.204C15.6076 22.6476 19.4097 22.8603 22.1224 20.8941C22.296 20.7683 22.309 20.5122 22.1571 20.3603L13.0078 11.211ZM22.9818 10.3863C20.5382 7.94276 16.7361 7.73009 14.0234 9.69623C13.8498 9.8221 13.8368 10.0782 13.9887 10.2301L23.138 19.3794C23.2899 19.5313 23.546 19.5139 23.6719 19.3447C25.638 16.6277 25.4297 12.8299 22.9818 10.3863V10.3863Z" fill="black"/>
</svg>
