<svg width="25" height="25" viewBox="0 0 25 25" fill="none" xmlns="http://www.w3.org/2000/svg">
<g clip-path="url(#clip0_109_342)">
<path d="M12.5 1.38892C9.4796 1.38892 7.03125 3.83727 7.03125 6.85767C7.03125 9.29951 10.6055 13.75 11.9748 15.3655C12.2522 15.6927 12.7483 15.6927 13.0252 15.3655C14.3945 13.75 17.9687 9.29951 17.9687 6.85767C17.9687 3.83727 15.5204 1.38892 12.5 1.38892ZM12.5 8.68058C11.4931 8.68058 10.6771 7.86461 10.6771 6.85767C10.6771 5.85072 11.4931 5.03475 12.5 5.03475C13.5069 5.03475 14.3229 5.85072 14.3229 6.85767C14.3229 7.86461 13.5069 8.68058 12.5 8.68058ZM0.873264 10.7617C0.615529 10.8648 0.394588 11.0428 0.238936 11.2726C0.083285 11.5025 6.17278e-05 11.7737 0 12.0512L0 22.9158C0 23.4071 0.496094 23.7431 0.952257 23.5608L6.94444 20.8334V10.717C6.56076 10.0235 6.24696 9.34812 6.02214 8.70228L0.873264 10.7617ZM12.5 16.9996C11.8893 16.9996 11.3116 16.7314 10.9154 16.2635C10.0621 15.2565 9.15451 14.1098 8.33333 12.9336V20.8329L16.6667 23.6107V12.9341C15.8455 14.1098 14.9384 15.257 14.0846 16.2639C13.6884 16.7314 13.1107 16.9996 12.5 16.9996ZM24.0477 8.38371L18.0556 11.1111V23.6111L24.1267 21.1828C24.3845 21.0797 24.6055 20.9018 24.7611 20.6719C24.9168 20.4421 25 20.1709 25 19.8933V9.02867C25 8.53735 24.5039 8.20142 24.0477 8.38371Z" fill="black"/>
</g>
<defs>
<clipPath id="clip0_109_342">
<rect width="25" height="25" fill="white"/>
</clipPath>
</defs>
</svg>
