<svg width="25" height="25" viewBox="0 0 25 25" fill="none" xmlns="http://www.w3.org/2000/svg">
<g clip-path="url(#clip0_109_338)">
<path d="M12.169 7.82387L4.16683 14.4146V21.5279C4.16683 21.712 4.23999 21.8887 4.37023 22.0189C4.50046 22.1491 4.67709 22.2223 4.86127 22.2223L9.72499 22.2097C9.90856 22.2088 10.0843 22.1352 10.2138 22.0051C10.3433 21.875 10.416 21.6988 10.416 21.5153V17.3612C10.416 17.177 10.4891 17.0004 10.6194 16.8701C10.7496 16.7399 10.9262 16.6667 11.1104 16.6667H13.8882C14.0724 16.6667 14.249 16.7399 14.3792 16.8701C14.5095 17.0004 14.5826 17.177 14.5826 17.3612V21.5122C14.5823 21.6036 14.6001 21.6941 14.6349 21.7787C14.6696 21.8632 14.7207 21.94 14.7853 22.0047C14.8498 22.0694 14.9264 22.1207 15.0108 22.1558C15.0952 22.1908 15.1857 22.2088 15.2771 22.2088L20.1391 22.2223C20.3232 22.2223 20.4999 22.1491 20.6301 22.0189C20.7603 21.8887 20.8335 21.712 20.8335 21.5279V14.4098L12.8331 7.82387C12.739 7.74805 12.6218 7.70671 12.501 7.70671C12.3802 7.70671 12.2631 7.74805 12.169 7.82387V7.82387ZM24.8092 12.3035L21.1807 9.31258V3.30086C21.1807 3.16273 21.1258 3.03025 21.0282 2.93258C20.9305 2.8349 20.798 2.78003 20.6599 2.78003H18.2293C18.0912 2.78003 17.9587 2.8349 17.861 2.93258C17.7634 3.03025 17.7085 3.16273 17.7085 3.30086V6.45234L13.8226 3.25529C13.4497 2.94842 12.9818 2.78064 12.4989 2.78064C12.0159 2.78064 11.548 2.94842 11.1751 3.25529L0.18853 12.3035C0.13579 12.3471 0.0921566 12.4006 0.0601219 12.4611C0.0280872 12.5215 0.00827941 12.5877 0.00183036 12.6558C-0.00461869 12.7239 0.00241739 12.7927 0.0225366 12.8581C0.0426557 12.9235 0.0754637 12.9843 0.119086 13.037L1.22586 14.3825C1.26936 14.4354 1.32287 14.4792 1.38332 14.5113C1.44377 14.5435 1.50998 14.5635 1.57815 14.5701C1.64633 14.5766 1.71513 14.5697 1.78061 14.5496C1.8461 14.5296 1.90699 14.4968 1.9598 14.4532L12.169 6.04435C12.2631 5.96854 12.3802 5.9272 12.501 5.9272C12.6218 5.9272 12.739 5.96854 12.8331 6.04435L23.0427 14.4532C23.0954 14.4968 23.1562 14.5296 23.2216 14.5498C23.287 14.5699 23.3557 14.5769 23.4238 14.5705C23.492 14.564 23.5581 14.5442 23.6186 14.5122C23.6791 14.4801 23.7326 14.4365 23.7762 14.3838L24.883 13.0383C24.9265 12.9853 24.9592 12.9242 24.9791 12.8585C24.999 12.7928 25.0057 12.7238 24.9988 12.6555C24.992 12.5872 24.9717 12.521 24.9391 12.4606C24.9066 12.4002 24.8624 12.3468 24.8092 12.3035V12.3035Z" fill="black"/>
</g>
<defs>
<clipPath id="clip0_109_338">
<rect width="25" height="25" fill="white"/>
</clipPath>
</defs>
</svg>
