<svg width="25" height="25" viewBox="0 0 25 25" fill="none" xmlns="http://www.w3.org/2000/svg">
<path d="M11.6699 12.5146L5.0293 5.87402C4.57031 5.41504 4.57031 4.67285 5.0293 4.21875L6.13281 3.11523C6.5918 2.65625 7.33398 2.65625 7.78809 3.11523L12.4951 7.82227L17.2021 3.11523C17.6611 2.65625 18.4033 2.65625 18.8574 3.11523L19.9707 4.21387C20.4297 4.67285 20.4297 5.41504 19.9707 5.86914L13.3301 12.5098C12.8711 12.9736 12.1289 12.9736 11.6699 12.5146ZM13.3301 21.8896L19.9707 15.249C20.4297 14.79 20.4297 14.0479 19.9707 13.5937L18.8672 12.4902C18.4082 12.0312 17.666 12.0312 17.2119 12.4902L12.5 17.1924L7.79297 12.4854C7.33398 12.0264 6.5918 12.0264 6.1377 12.4854L5.0293 13.5889C4.57031 14.0479 4.57031 14.79 5.0293 15.2441L11.6699 21.8848C12.1289 22.3486 12.8711 22.3486 13.3301 21.8896Z" fill="black"/>
</svg>
