<svg width="25" height="25" viewBox="0 0 25 25" fill="none" xmlns="http://www.w3.org/2000/svg">
<path d="M24.2188 18.75H3.125V3.90625C3.125 3.47461 2.77539 3.125 2.34375 3.125H0.78125C0.349609 3.125 0 3.47461 0 3.90625V20.3125C0 21.1753 0.699707 21.875 1.5625 21.875H24.2188C24.6504 21.875 25 21.5254 25 21.0938V19.5312C25 19.0996 24.6504 18.75 24.2188 18.75ZM22.6562 4.6875H16.8916C15.8477 4.6875 15.3247 5.94971 16.063 6.68799L17.645 8.27002L14.0625 11.853L10.48 8.27051C9.86963 7.66016 8.88037 7.66016 8.27051 8.27051L4.9165 11.6245C4.61133 11.9297 4.61133 12.4243 4.9165 12.7295L6.021 13.834C6.32617 14.1392 6.8208 14.1392 7.12598 13.834L9.375 11.5845L12.9575 15.167C13.5679 15.7773 14.5571 15.7773 15.167 15.167L19.8545 10.4795L21.4365 12.0615C22.1748 12.7998 23.437 12.2769 23.437 11.2329V5.46875C23.4375 5.03711 23.0879 4.6875 22.6562 4.6875Z" fill="black"/>
</svg>
