<svg width="20" height="20" viewBox="0 0 20 20" fill="none" xmlns="http://www.w3.org/2000/svg">
<g clip-path="url(#clip0_109_341)">
<path d="M15 9.6875V10.7812C15 11.0391 14.7187 11.25 14.375 11.25H5.625C5.28125 11.25 5 11.0391 5 10.7812V9.6875C5 9.42969 5.28125 9.21875 5.625 9.21875H14.375C14.7187 9.21875 15 9.42969 15 9.6875ZM14.375 12.5H5.625C5.28125 12.5 5 12.7109 5 12.9688V14.0625C5 14.3203 5.28125 14.5312 5.625 14.5312H14.375C14.7187 14.5312 15 14.3203 15 14.0625V12.9688C15 12.7109 14.7187 12.5 14.375 12.5ZM20 5.15234V18.125C20 19.1602 18.8802 20 17.5 20H2.5C1.11979 20 0 19.1602 0 18.125V1.875C0 0.839844 1.11979 0 2.5 0H13.1302C13.7917 0 14.4271 0.199219 14.8958 0.550781L19.2656 3.82812C19.7344 4.17578 20 4.65625 20 5.15234ZM13.3333 2.02734V5H17.2969L13.3333 2.02734V2.02734ZM17.5 18.125V6.875H12.0833C11.3906 6.875 10.8333 6.45703 10.8333 5.9375V1.875H2.5V18.125H17.5Z" fill="black"/>
</g>
<defs>
<clipPath id="clip0_109_341">
<rect width="20" height="20" fill="white"/>
</clipPath>
</defs>
</svg>
