<svg width="57" height="25" viewBox="0 0 57 25" fill="none" xmlns="http://www.w3.org/2000/svg">
<path d="M1.386 18V5.31H3.69V10.926H3.726L9.324 5.31H12.132L5.958 11.412L12.438 18H9.594L3.726 12.132H3.69V18H1.386ZM18.5174 18.18C17.2934 18.18 16.2194 17.91 15.2954 17.37C14.3834 16.83 13.6754 16.074 13.1714 15.102C12.6674 14.118 12.4154 12.966 12.4154 11.646C12.4154 10.314 12.6674 9.162 13.1714 8.19C13.6754 7.218 14.3834 6.468 15.2954 5.94C16.2074 5.4 17.2814 5.13 18.5174 5.13C19.7534 5.13 20.8274 5.4 21.7394 5.94C22.6514 6.468 23.3594 7.218 23.8634 8.19C24.3674 9.162 24.6194 10.308 24.6194 11.628C24.6194 12.96 24.3674 14.118 23.8634 15.102C23.3594 16.074 22.6514 16.83 21.7394 17.37C20.8274 17.91 19.7534 18.18 18.5174 18.18ZM18.5174 16.2C19.6814 16.2 20.5874 15.798 21.2354 14.994C21.8834 14.19 22.2074 13.074 22.2074 11.646C22.2074 10.206 21.8834 9.09 21.2354 8.298C20.5994 7.506 19.6934 7.11 18.5174 7.11C17.3534 7.11 16.4474 7.506 15.7994 8.298C15.1514 9.09 14.8274 10.206 14.8274 11.646C14.8274 13.074 15.1514 14.19 15.7994 14.994C16.4474 15.798 17.3534 16.2 18.5174 16.2ZM26.9622 18V5.31H32.4702C33.8622 5.31 34.9362 5.646 35.6922 6.318C36.4482 6.978 36.8262 7.908 36.8262 9.108C36.8262 10.056 36.5802 10.842 36.0882 11.466C35.5962 12.078 34.8882 12.492 33.9642 12.708C34.5762 12.9 35.0802 13.362 35.4762 14.094L37.6002 18H35.0622L32.8662 13.95C32.6502 13.554 32.3922 13.284 32.0922 13.14C31.8042 12.996 31.4322 12.924 30.9762 12.924H29.2662V18H26.9622ZM29.2662 11.214H32.0742C33.7542 11.214 34.5942 10.53 34.5942 9.162C34.5942 7.806 33.7542 7.128 32.0742 7.128H29.2662V11.214Z" fill="#777777"/>
<path d="M50.0682 14.9451L46.615 11.492C46.3764 11.2533 46.3764 10.8674 46.615 10.6312L47.1889 10.0574C47.4275 9.81875 47.8135 9.81875 48.0496 10.0574L50.4973 12.5051L52.9449 10.0574C53.1836 9.81875 53.5695 9.81875 53.8057 10.0574L54.3795 10.6312C54.6182 10.8699 54.6182 11.2559 54.3795 11.492L50.9264 14.9451C50.6928 15.1838 50.3068 15.1838 50.0682 14.9451V14.9451Z" fill="#777777"/>
</svg>
