<svg width="57" height="91" viewBox="0 0 57 91" fill="none" xmlns="http://www.w3.org/2000/svg">
<path d="M1.386 18V5.31H3.69V10.926H3.726L9.324 5.31H12.132L5.958 11.412L12.438 18H9.594L3.726 12.132H3.69V18H1.386ZM18.5174 18.18C17.2934 18.18 16.2194 17.91 15.2954 17.37C14.3834 16.83 13.6754 16.074 13.1714 15.102C12.6674 14.118 12.4154 12.966 12.4154 11.646C12.4154 10.314 12.6674 9.162 13.1714 8.19C13.6754 7.218 14.3834 6.468 15.2954 5.94C16.2074 5.4 17.2814 5.13 18.5174 5.13C19.7534 5.13 20.8274 5.4 21.7394 5.94C22.6514 6.468 23.3594 7.218 23.8634 8.19C24.3674 9.162 24.6194 10.308 24.6194 11.628C24.6194 12.96 24.3674 14.118 23.8634 15.102C23.3594 16.074 22.6514 16.83 21.7394 17.37C20.8274 17.91 19.7534 18.18 18.5174 18.18ZM18.5174 16.2C19.6814 16.2 20.5874 15.798 21.2354 14.994C21.8834 14.19 22.2074 13.074 22.2074 11.646C22.2074 10.206 21.8834 9.09 21.2354 8.298C20.5994 7.506 19.6934 7.11 18.5174 7.11C17.3534 7.11 16.4474 7.506 15.7994 8.298C15.1514 9.09 14.8274 10.206 14.8274 11.646C14.8274 13.074 15.1514 14.19 15.7994 14.994C16.4474 15.798 17.3534 16.2 18.5174 16.2ZM26.9622 18V5.31H32.4702C33.8622 5.31 34.9362 5.646 35.6922 6.318C36.4482 6.978 36.8262 7.908 36.8262 9.108C36.8262 10.056 36.5802 10.842 36.0882 11.466C35.5962 12.078 34.8882 12.492 33.9642 12.708C34.5762 12.9 35.0802 13.362 35.4762 14.094L37.6002 18H35.0622L32.8662 13.95C32.6502 13.554 32.3922 13.284 32.0922 13.14C31.8042 12.996 31.4322 12.924 30.9762 12.924H29.2662V18H26.9622ZM29.2662 11.214H32.0742C33.7542 11.214 34.5942 10.53 34.5942 9.162C34.5942 7.806 33.7542 7.128 32.0742 7.128H29.2662V11.214Z" fill="#777777"/>
<path d="M50.9318 10.0549L54.385 13.508C54.6236 13.7467 54.6236 14.1326 54.385 14.3688L53.8111 14.9426C53.5725 15.1812 53.1865 15.1812 52.9504 14.9426L50.5027 12.4949L48.0551 14.9426C47.8164 15.1812 47.4305 15.1812 47.1943 14.9426L46.6205 14.3687C46.3818 14.1301 46.3818 13.7441 46.6205 13.508L50.0736 10.0549C50.3072 9.81621 50.6932 9.81621 50.9318 10.0549V10.0549Z" fill="#777777"/>
<rect width="57" height="66" transform="translate(0 25)" fill="black"/>
<path d="M15.792 50.098C15.6053 50.098 15.4607 50.0467 15.358 49.944C15.2647 49.832 15.218 49.6827 15.218 49.496V40.62C15.218 40.424 15.2647 40.2793 15.358 40.186C15.4607 40.0833 15.6053 40.032 15.792 40.032C15.9787 40.032 16.1187 40.0833 16.212 40.186C16.3147 40.2793 16.366 40.424 16.366 40.62V44.61H16.394L20.958 40.354C21.07 40.242 21.182 40.1627 21.294 40.116C21.406 40.06 21.5273 40.032 21.658 40.032C21.8353 40.032 21.9613 40.074 22.036 40.158C22.12 40.242 22.1527 40.3447 22.134 40.466C22.1153 40.5873 22.05 40.704 21.938 40.816L17.164 45.24L17.178 44.624L22.162 49.23C22.302 49.3607 22.3767 49.496 22.386 49.636C22.3953 49.7667 22.3533 49.8787 22.26 49.972C22.176 50.056 22.0453 50.098 21.868 50.098C21.728 50.098 21.6067 50.0653 21.504 50C21.4107 49.944 21.3033 49.8553 21.182 49.734L16.394 45.352H16.366V49.496C16.366 49.6827 16.3193 49.832 16.226 49.944C16.1327 50.0467 15.988 50.098 15.792 50.098ZM27.7018 50.126C26.7872 50.126 25.9892 49.9207 25.3078 49.51C24.6358 49.09 24.1132 48.502 23.7398 47.746C23.3758 46.99 23.1938 46.094 23.1938 45.058C23.1938 44.274 23.2965 43.574 23.5018 42.958C23.7165 42.3327 24.0198 41.8053 24.4118 41.376C24.8038 40.9373 25.2752 40.6013 25.8258 40.368C26.3858 40.1253 27.0112 40.004 27.7018 40.004C28.6352 40.004 29.4378 40.2093 30.1098 40.62C30.7912 41.0307 31.3138 41.614 31.6778 42.37C32.0512 43.1167 32.2378 44.008 32.2378 45.044C32.2378 45.828 32.1305 46.5327 31.9158 47.158C31.7012 47.7833 31.3978 48.3153 31.0058 48.754C30.6138 49.1927 30.1378 49.5333 29.5778 49.776C29.0272 50.0093 28.4018 50.126 27.7018 50.126ZM27.7018 49.104C28.4112 49.104 29.0085 48.9453 29.4938 48.628C29.9885 48.3107 30.3665 47.8487 30.6278 47.242C30.8892 46.6353 31.0198 45.9073 31.0198 45.058C31.0198 43.7793 30.7305 42.79 30.1518 42.09C29.5825 41.3807 28.7658 41.026 27.7018 41.026C27.0112 41.026 26.4185 41.1847 25.9238 41.502C25.4385 41.8193 25.0652 42.2813 24.8038 42.888C24.5425 43.4853 24.4118 44.2087 24.4118 45.058C24.4118 46.3273 24.7012 47.3213 25.2798 48.04C25.8585 48.7493 26.6658 49.104 27.7018 49.104ZM34.8643 50.098C34.6776 50.098 34.5329 50.0467 34.4303 49.944C34.3369 49.832 34.2903 49.6827 34.2903 49.496V40.718C34.2903 40.522 34.3416 40.3773 34.4443 40.284C34.5469 40.1813 34.6916 40.13 34.8783 40.13H38.1963C39.2509 40.13 40.0629 40.3773 40.6323 40.872C41.2016 41.3667 41.4863 42.0713 41.4863 42.986C41.4863 43.5647 41.3556 44.0687 41.0943 44.498C40.8423 44.918 40.4689 45.24 39.9743 45.464C39.4796 45.6787 38.8869 45.786 38.1963 45.786L38.3363 45.604H38.6163C38.9803 45.604 39.2976 45.6973 39.5683 45.884C39.8389 46.0707 40.0863 46.3693 40.3103 46.78L41.6543 49.286C41.7289 49.4167 41.7616 49.5473 41.7523 49.678C41.7523 49.7993 41.7103 49.902 41.6263 49.986C41.5423 50.0607 41.4209 50.098 41.2623 50.098C41.1036 50.098 40.9729 50.0607 40.8703 49.986C40.7676 49.9113 40.6789 49.804 40.6043 49.664L39.0783 46.836C38.8636 46.4347 38.6163 46.1687 38.3363 46.038C38.0563 45.898 37.6876 45.828 37.2303 45.828H35.4383V49.496C35.4383 49.6827 35.3916 49.832 35.2983 49.944C35.2049 50.0467 35.0603 50.098 34.8643 50.098ZM35.4383 44.918H38.0283C38.7936 44.918 39.3723 44.7593 39.7643 44.442C40.1563 44.1153 40.3523 43.63 40.3523 42.986C40.3523 42.3607 40.1563 41.8893 39.7643 41.572C39.3723 41.2453 38.7936 41.082 38.0283 41.082H35.4383V44.918Z" fill="white"/>
<path d="M15.848 76C15.6427 76 15.484 75.9487 15.372 75.846C15.2693 75.734 15.218 75.5753 15.218 75.37V66.76C15.218 66.5547 15.2693 66.4007 15.372 66.298C15.484 66.186 15.6427 66.13 15.848 66.13H21.056C21.2147 66.13 21.336 66.172 21.42 66.256C21.504 66.34 21.546 66.4567 21.546 66.606C21.546 66.7647 21.504 66.886 21.42 66.97C21.336 67.054 21.2147 67.096 21.056 67.096H16.338V70.512H20.762C20.9207 70.512 21.042 70.554 21.126 70.638C21.21 70.7127 21.252 70.8293 21.252 70.988C21.252 71.1467 21.21 71.268 21.126 71.352C21.042 71.436 20.9207 71.478 20.762 71.478H16.338V75.034H21.056C21.2147 75.034 21.336 75.076 21.42 75.16C21.504 75.244 21.546 75.3607 21.546 75.51C21.546 75.6687 21.504 75.79 21.42 75.874C21.336 75.958 21.2147 76 21.056 76H15.848ZM23.9261 76.098C23.7488 76.098 23.6134 76.0513 23.5201 75.958C23.4268 75.8553 23.3801 75.7107 23.3801 75.524V66.62C23.3801 66.4333 23.4268 66.2887 23.5201 66.186C23.6134 66.0833 23.7348 66.032 23.8841 66.032C24.0334 66.032 24.1408 66.06 24.2061 66.116C24.2808 66.1627 24.3648 66.2513 24.4581 66.382L30.5621 74.516H30.2261V66.592C30.2261 66.4147 30.2728 66.2793 30.3661 66.186C30.4594 66.0833 30.5948 66.032 30.7721 66.032C30.9401 66.032 31.0661 66.0833 31.1501 66.186C31.2434 66.2793 31.2901 66.4147 31.2901 66.592V75.538C31.2901 75.7153 31.2481 75.8553 31.1641 75.958C31.0894 76.0513 30.9774 76.098 30.8281 76.098C30.6881 76.098 30.5761 76.07 30.4921 76.014C30.4081 75.958 30.3194 75.8693 30.2261 75.748L24.1361 67.614H24.4581V75.524C24.4581 75.7107 24.4114 75.8553 24.3181 75.958C24.2248 76.0513 24.0941 76.098 23.9261 76.098ZM38.2514 76.126C37.1967 76.126 36.3054 75.9253 35.5774 75.524C34.8587 75.1227 34.3127 74.544 33.9394 73.788C33.5661 73.032 33.3794 72.1267 33.3794 71.072C33.3794 70.288 33.4821 69.5833 33.6874 68.958C33.9021 68.3327 34.2101 67.8053 34.6114 67.376C35.0221 66.9373 35.5167 66.6013 36.0954 66.368C36.6834 66.1253 37.3461 66.004 38.0834 66.004C38.6714 66.004 39.2407 66.088 39.7914 66.256C40.3421 66.4147 40.8321 66.6713 41.2614 67.026C41.3734 67.11 41.4434 67.2033 41.4714 67.306C41.4994 67.4087 41.4947 67.5113 41.4574 67.614C41.4294 67.7167 41.3781 67.8053 41.3034 67.88C41.2381 67.9453 41.1494 67.9827 41.0374 67.992C40.9347 68.0013 40.8274 67.9687 40.7154 67.894C40.3327 67.5953 39.9267 67.3807 39.4974 67.25C39.0681 67.11 38.5921 67.04 38.0694 67.04C37.3227 67.04 36.6881 67.1987 36.1654 67.516C35.6521 67.8333 35.2601 68.2907 34.9894 68.888C34.7281 69.4853 34.5974 70.2133 34.5974 71.072C34.5974 72.3787 34.9007 73.3773 35.5074 74.068C36.1234 74.7587 37.0474 75.104 38.2794 75.104C38.7274 75.104 39.1661 75.062 39.5954 74.978C40.0247 74.8847 40.4307 74.7587 40.8134 74.6L40.5614 75.258V71.772H38.5594C38.3914 71.772 38.2654 71.73 38.1814 71.646C38.0974 71.562 38.0554 71.45 38.0554 71.31C38.0554 71.1607 38.0974 71.0487 38.1814 70.974C38.2654 70.8993 38.3914 70.862 38.5594 70.862H41.0654C41.2241 70.862 41.3454 70.904 41.4294 70.988C41.5134 71.072 41.5554 71.1933 41.5554 71.352V75.006C41.5554 75.146 41.5321 75.2627 41.4854 75.356C41.4387 75.4493 41.3594 75.5193 41.2474 75.566C40.8554 75.7247 40.3841 75.86 39.8334 75.972C39.2921 76.0747 38.7647 76.126 38.2514 76.126Z" fill="white"/>
</svg>
