<svg width="32" height="32" viewBox="0 0 32 32" fill="none" xmlns="http://www.w3.org/2000/svg">
<rect width="32" height="32" rx="5" fill="#F2F2F2"/>
<path fill-rule="evenodd" clip-rule="evenodd" d="M15.3425 20.1865C12.7186 20.1865 10.583 18.0353 10.583 15.3913C10.583 12.7464 12.7186 10.5952 15.3425 10.5952C17.9664 10.5952 20.1019 12.7464 20.1019 15.3913C20.1019 18.0353 17.9664 20.1865 15.3425 20.1865ZM23.3939 22.2643L20.3987 19.2334C21.2013 18.1622 21.685 16.8341 21.685 15.3913C21.685 11.8666 18.8394 9 15.3425 9C11.8455 9 9 11.8666 9 15.3913C9 18.9151 11.8455 21.7817 15.3425 21.7817C16.8385 21.7817 18.2118 21.2545 19.2969 20.3787L22.2731 23.3905C22.4219 23.542 22.6213 23.625 22.8335 23.625C23.044 23.625 23.2419 23.5428 23.3923 23.3929C23.5411 23.2421 23.6242 23.0419 23.625 22.829C23.6258 22.616 23.5435 22.415 23.3939 22.2643Z" fill="#BBBBBB"/>
</svg>
