<svg width="93" height="32" viewBox="0 0 93 32" fill="none" xmlns="http://www.w3.org/2000/svg">
<rect x="0.5" y="0.5" width="92" height="31" rx="4.5" fill="white"/>
<path d="M14.582 10.632V12.018H24.242V10.632H14.582ZM14.68 13.67V15.056H24.144V13.67H14.68ZM16.234 11.178V14.566H18.096V11.178H16.234ZM20.728 11.178V14.566H22.59V11.178H20.728ZM13.56 15.728V17.184H25.278V15.728H13.56ZM14.904 17.898V19.228H22.03V19.872H14.918V22.322H16.752V21.118H23.864V17.898H14.904ZM14.918 21.804V23.162H24.2V21.804H14.918ZM35.7209 10.282V18.99H37.4849V10.282H35.7209ZM34.1949 13.418V14.902H36.2389V13.418H34.1949ZM32.9489 10.52V17.912H34.6849V10.52H32.9489ZM26.9569 16.372V17.828H27.8529C29.7849 17.828 31.0449 17.8 32.5009 17.506L32.3329 16.05C30.9329 16.33 29.7289 16.372 27.8529 16.372H26.9569ZM26.9429 11.178V12.648H30.0649V13.796H26.9569V17.352H28.7629V15.14H31.8569V11.178H26.9429ZM32.0949 18.444V18.668C32.0949 19.998 30.7649 21.412 27.9649 21.762L28.6929 23.204C31.8849 22.728 33.6769 20.922 33.6769 18.668V18.444H32.0949ZM32.3609 18.444V18.668C32.3609 20.922 34.1529 22.728 37.3449 23.204L38.0729 21.762C35.2729 21.412 33.9429 19.998 33.9429 18.668V18.444H32.3609ZM39.3178 16.554V18.024H51.0358V16.554H39.3178ZM44.2318 15.224V17.198H46.0938V15.224H44.2318ZM40.3398 10.632V12.116H49.9998V10.632H40.3398ZM40.4378 14.062V15.546H49.9018V14.062H40.4378ZM41.9918 11.178V15.028H43.8538V11.178H41.9918ZM46.4858 11.178V15.028H48.3478V11.178H46.4858ZM40.6758 18.878V23.106H49.6358V18.878H40.6758ZM47.8158 20.334V21.636H42.5098V20.334H47.8158ZM64.3006 10.282V16.918H66.1766V10.282H64.3006ZM57.3986 17.436V18.864H64.3286V19.606H57.4266V22.504H59.2606V20.936H66.1766V17.436H57.3986ZM57.4266 21.72V23.162H66.5266V21.72H57.4266ZM55.9286 11.066V12.494H62.9146V11.066H55.9286ZM55.7746 16.694C58.0146 16.68 60.9266 16.624 63.4886 16.204L63.3906 14.874C60.8846 15.182 57.8606 15.224 55.5926 15.224L55.7746 16.694ZM56.9506 11.71V15.952H58.7286V11.71H56.9506ZM60.0866 11.71V15.952H61.8926V11.71H60.0866ZM77.2775 10.268V23.274H79.1255V10.268H77.2775ZM75.0515 14.832V16.344H77.4875V14.832H75.0515ZM68.8355 18.836V20.348H69.8715C72.0555 20.348 73.7355 20.292 75.6115 19.998L75.4435 18.514C73.6095 18.808 72.0135 18.836 69.8715 18.836H68.8355ZM68.8355 11.36V19.312H70.6835V12.872H74.8415V11.36H68.8355ZM70.2635 14.972V16.428H74.3935V14.972H70.2635Z" fill="#737373"/>
<rect x="0.5" y="0.5" width="92" height="31" rx="4.5" stroke="#BBBBBB"/>
</svg>
