<svg width="93" height="32" viewBox="0 0 93 32" fill="none" xmlns="http://www.w3.org/2000/svg">
<g filter="url(#filter0_i_406_84)">
<rect width="93" height="32" rx="5" fill="#F2F2F2"/>
<path d="M20.742 13.684H18.096V12.032H20.742V13.684ZM16.262 13.684H14.708V15.056H24.116V13.684H22.576V12.032H24.214V10.66H14.624V12.032H16.262V13.684ZM16.78 21.076H23.836V17.884H14.932V19.214H22.016V19.844H14.946V23.106H24.172V21.776H16.78V21.076ZM13.602 15.714V17.17H25.25V15.714H13.602ZM34.6849 14.902H35.7209V18.976H37.4709V10.31H35.7209V13.432H34.6849V10.534H32.9629V17.912H34.6849V14.902ZM32.3469 16.05C31.1849 16.274 30.1489 16.344 28.7769 16.372V15.154H31.8709V11.206H26.9849V12.648H30.0929V13.81H26.9989V17.828H27.8949C29.8129 17.828 31.0589 17.786 32.5149 17.492L32.3469 16.05ZM33.9569 18.43H32.1089V18.654C32.1089 19.984 30.7789 21.384 28.0069 21.734L28.7209 23.162C30.7649 22.868 32.2349 22.014 33.0329 20.824C33.8029 22.014 35.2869 22.868 37.3309 23.162L38.0589 21.734C35.2729 21.384 33.9569 19.984 33.9569 18.654V18.43ZM42.5238 20.306H47.8018V21.608H42.5238V20.306ZM40.7178 23.05H49.6218V18.85H40.7178V23.05ZM43.8538 12.13H46.4998V14.076H43.8538V12.13ZM46.0938 16.554V15.546H49.8598V14.076H48.3338V12.13H49.9718V10.66H40.3818V12.13H42.0198V14.076H40.4658V15.546H44.2458V16.554H39.3598V18.01H51.0078V16.554H46.0938ZM66.1486 10.324H64.3006V16.918H66.1486V10.324ZM58.7566 12.522H60.1146V15.126C59.6666 15.154 59.2046 15.168 58.7566 15.182V12.522ZM63.3906 14.888C62.9006 14.944 62.4106 14.986 61.8926 15.028V12.522H62.9006V11.094H55.9566V12.522H56.9786V15.21L55.6346 15.224L55.8166 16.68C58.0426 16.68 60.9406 16.61 63.4746 16.19L63.3906 14.888ZM59.2746 21.678V20.908H66.1486V17.436H57.4266V18.85H64.3146V19.592H57.4406V23.106H66.5126V21.678H59.2746ZM70.7115 16.414H74.4075V14.972H70.7115V12.872H74.8415V11.388H68.8775V20.306H69.9275C72.0975 20.306 73.7495 20.264 75.6115 19.97L75.4435 18.486C73.8615 18.738 72.4475 18.808 70.7115 18.822V16.414ZM77.2635 10.296V14.846H75.0515V16.33H77.2635V23.232H79.1115V10.296H77.2635Z" fill="#555555"/>
<rect x="0.5" y="0.5" width="92" height="31" rx="4.5" stroke="#AAAAAA"/>
</g>
<defs>
<filter id="filter0_i_406_84" x="0" y="0" width="95" height="34" filterUnits="userSpaceOnUse" color-interpolation-filters="sRGB">
<feFlood flood-opacity="0" result="BackgroundImageFix"/>
<feBlend mode="normal" in="SourceGraphic" in2="BackgroundImageFix" result="shape"/>
<feColorMatrix in="SourceAlpha" type="matrix" values="0 0 0 0 0 0 0 0 0 0 0 0 0 0 0 0 0 0 127 0" result="hardAlpha"/>
<feOffset dx="2" dy="2"/>
<feGaussianBlur stdDeviation="2.5"/>
<feComposite in2="hardAlpha" operator="arithmetic" k2="-1" k3="1"/>
<feColorMatrix type="matrix" values="0 0 0 0 0 0 0 0 0 0 0 0 0 0 0 0 0 0 0.2 0"/>
<feBlend mode="normal" in2="shape" result="effect1_innerShadow_406_84"/>
</filter>
</defs>
</svg>
