<svg width="16" height="16" viewBox="0 0 16 16" fill="none" xmlns="http://www.w3.org/2000/svg">
<g clip-path="url(#clip0_405_120)">
<path fill-rule="evenodd" clip-rule="evenodd" d="M7.02998 11.874C4.40608 11.874 2.27055 9.72284 2.27055 7.07876C2.27055 4.43388 4.40608 2.28272 7.02998 2.28272C9.65389 2.28272 11.7894 4.43388 11.7894 7.07876C11.7894 9.72284 9.65389 11.874 7.02998 11.874ZM15.0814 13.9518L12.0862 10.9209C12.8888 9.84966 13.3725 8.52164 13.3725 7.07876C13.3725 3.55412 10.5269 0.6875 7.02998 0.6875C3.53303 0.6875 0.6875 3.55412 0.6875 7.07876C0.6875 10.6026 3.53303 13.4692 7.02998 13.4692C8.52597 13.4692 9.89926 12.942 10.9844 12.0662L13.9606 15.078C14.1094 15.2295 14.3088 15.3125 14.521 15.3125C14.7315 15.3125 14.9294 15.2303 15.0798 15.0804C15.2286 14.9296 15.3117 14.7294 15.3125 14.5165C15.3133 14.3035 15.231 14.1025 15.0814 13.9518Z" fill="#BABAC3" fill-opacity="0.76"/>
</g>
<defs>
<clipPath id="clip0_405_120">
<rect width="16" height="16" fill="white"/>
</clipPath>
</defs>
</svg>
