<svg width="24" height="24" viewBox="0 0 24 24" fill="none" xmlns="http://www.w3.org/2000/svg">
<path fill-rule="evenodd" clip-rule="evenodd" d="M6.75 9.48499H3.75C3.48478 9.48499 3.23043 9.59034 3.04289 9.77788C2.85536 9.96542 2.75 10.2198 2.75 10.485V20.485C2.75 20.7502 2.85536 21.0046 3.04289 21.1921C3.23043 21.3796 3.48478 21.485 3.75 21.485H6.75C7.01522 21.485 7.26957 21.3796 7.45711 21.1921C7.64464 21.0046 7.75 20.7502 7.75 20.485V10.485C7.75 10.2198 7.64464 9.96542 7.45711 9.77788C7.26957 9.59034 7.01522 9.48499 6.75 9.48499ZM20.657 8.56599C20.4357 8.31133 20.1624 8.10701 19.8556 7.96677C19.5487 7.82654 19.2154 7.75364 18.878 7.75299H16.62L16.784 7.12599C16.921 6.59799 16.985 6.00599 16.985 5.26299C16.985 3.34399 15.61 2.48499 14.247 2.48499C13.803 2.48499 13.481 2.60799 13.261 2.86099C13.061 3.08799 12.979 3.39099 13.018 3.79599L13.048 5.02599L10.145 7.96599C9.552 8.56599 9.251 9.19599 9.251 9.83799V19.485C9.251 19.6176 9.30368 19.7448 9.39745 19.8385C9.49121 19.9323 9.61839 19.985 9.751 19.985H17.438C18.013 19.9805 18.5671 19.7686 18.9985 19.3883C19.4298 19.0081 19.7094 18.4849 19.786 17.915L21.231 10.463C21.2734 10.1242 21.2442 9.78035 21.1453 9.45358C21.0464 9.12681 20.8801 8.82443 20.657 8.56599" fill="#787878"/>
</svg>
