<svg width="220" height="70" viewBox="0 0 220 70" fill="none" xmlns="http://www.w3.org/2000/svg">
<g clip-path="url(#clip0_39_2785)">
<path d="M198.6 10.3318C194.833 10.3318 191.774 12.8302 191.774 15.8933C191.774 18.9564 194.833 21.4549 198.6 21.4549C202.368 21.4549 205.431 18.9564 205.431 15.8933C205.431 12.8302 202.378 10.3318 198.6 10.3318ZM198.6 19.0964C197.998 19.0944 197.409 18.9139 196.909 18.5778C196.41 18.2417 196.02 17.7649 195.791 17.2078C195.562 16.6507 195.503 16.0381 195.622 15.4475C195.741 14.8569 196.032 14.3147 196.458 13.8894C196.885 13.4641 197.428 13.1748 198.019 13.058C198.61 12.9412 199.223 13.0021 199.779 13.2331C200.335 13.4641 200.811 13.8548 201.145 14.3559C201.48 14.8569 201.658 15.4458 201.658 16.0482C201.658 16.4492 201.578 16.8461 201.424 17.2162C201.27 17.5864 201.045 17.9226 200.761 18.2057C200.477 18.4887 200.14 18.713 199.769 18.8659C199.398 19.0187 199.001 19.097 198.6 19.0964V19.0964Z" fill="white"/>
<path d="M189.731 10.9863H185.288V30.3793H189.731V10.9863Z" fill="white"/>
<path d="M165.661 15.9682H163.077V10.9863H158.635V15.9682V18.3268V30.3843H163.077V18.3268H165.661V15.9682Z" fill="white"/>
<path d="M140.066 14.789H137.483V10.9863H133.041V14.789V17.1475V21.4798H137.483V17.1475H140.066V14.789Z" fill="white"/>
<path d="M180.032 10.9863V15.9682H177.448V18.3268H180.032V30.3843H184.474V18.3268V15.9682V10.9863H180.032Z" fill="white"/>
<path d="M178.478 10.9863H166.975V13.5048H178.478V10.9863Z" fill="white"/>
<path d="M149.261 10.6165C145.263 10.6165 142.025 13.4597 142.025 16.9675C142.025 20.4754 145.268 23.3136 149.261 23.3136C153.253 23.3136 156.501 20.4903 156.501 16.9925C156.501 13.4947 153.258 10.6165 149.261 10.6165ZM149.261 20.6103C148.818 20.5942 148.383 20.4908 147.981 20.3061C147.579 20.1213 147.217 19.8589 146.917 19.5338C146.616 19.2087 146.383 18.8274 146.23 18.4119C146.078 17.9963 146.009 17.5547 146.028 17.1124C145.997 16.669 146.059 16.2241 146.208 15.8054C146.357 15.3866 146.59 15.003 146.893 14.6782C147.197 14.3534 147.564 14.0945 147.971 13.9175C148.379 13.7404 148.819 13.6491 149.263 13.6491C149.708 13.6491 150.147 13.7404 150.555 13.9175C150.963 14.0945 151.33 14.3534 151.633 14.6782C151.936 15.003 152.17 15.3866 152.319 15.8054C152.468 16.2241 152.529 16.669 152.499 17.1124C152.518 17.5558 152.45 17.9986 152.297 18.4153C152.145 18.832 151.911 19.2145 151.61 19.5405C151.309 19.8666 150.946 20.1299 150.543 20.3152C150.14 20.5005 149.704 20.6042 149.261 20.6203V20.6103Z" fill="white"/>
<path d="M123.851 15.4086L127.444 21.3949H131.941L125.695 10.9863H122.008L115.761 21.3949H120.259L123.851 15.4086Z" fill="white"/>
<path d="M172.726 17.3223L174.78 24.8426H178.977L175.534 13.5046H169.913L166.475 24.8426H170.668L172.726 17.3223Z" fill="white"/>
<path d="M207.974 30.4492H212.417V25.1724V22.9238H207.974H193.403V25.1724H207.974V30.4492Z" fill="white"/>
<path d="M91.4464 17.3874C86.4495 21.265 82.7218 26.6217 80.4532 30.4943H87.1741C87.9336 29.36 88.7881 28.1707 89.7325 26.9964H101.565L101.34 30.4943H110.56V10.1619C106.672 10.6616 98.0174 12.2955 91.4464 17.3874ZM94.9443 21.3849C95.409 20.9802 95.8837 20.5904 96.3734 20.2106C98.172 18.8286 100.122 17.6552 102.185 16.7128L101.885 21.3799L94.9443 21.3849Z" fill="white"/>
<path d="M215 15.4586V13.1H212.417V10.9863H207.974V13.1V15.4586V17.0426V19.4011V21.4548H212.417V19.4011H215V17.0426H212.417V15.4586H215Z" fill="white"/>
<path d="M89.4127 12.4304C88.0738 13.4801 86.8114 14.624 85.6351 15.8533V15.8533C85.6351 15.8533 84.2459 13.4947 80.2234 13.4947C77.9349 13.4454 75.707 14.2325 73.9573 15.7084C73.9573 15.7084 72.4582 13.4947 69.0054 13.4947C66.7364 13.5786 64.5278 14.2483 62.5944 15.4385L63.094 13.4947H54.7092L49.1277 30.4842H57.7074L61.465 20.3305C61.465 20.3305 61.7149 19.4561 63.0741 19.4561C64.4332 19.4561 63.9885 20.7902 63.8786 21.0651C63.7686 21.3399 60.6206 30.4842 60.6206 30.4842H69.2552L72.783 20.3205C72.9302 20.0584 73.15 19.8444 73.416 19.7044C73.6819 19.5643 73.9827 19.5041 74.2821 19.531C75.4764 19.531 75.2815 20.6403 75.0866 21.165C74.8917 21.6897 72.0335 30.4842 72.0335 30.4842H78.1047C80.1535 26.6766 84.3109 19.9907 90.2422 15.3636C97.6127 9.64712 107.641 8.29296 110.565 7.99814V5C110.565 5 98.1273 5.65959 89.4127 12.4304Z" fill="white"/>
<path d="M46.6592 30.4841L50.8216 17.4922C50.8216 17.4922 51.4212 15.2086 49.5274 14.3691C47.6336 13.5296 45.31 13.2648 41.8272 13.4947C38.3443 13.7245 33.6122 14.494 33.6122 14.494L31.9483 19.3061C33.5999 18.8546 35.2814 18.5206 36.9802 18.3067C39.5336 18.0069 41.2875 17.862 41.4274 18.4916C41.5673 19.1212 41.5723 19.6009 38.1294 20.1206C34.6866 20.6402 29.8746 21.6196 28.3205 24.1531C26.7665 26.6865 27.3561 29.6497 28.8202 30.1893C30.2843 30.729 31.8184 30.5191 33.1175 30.5191H36.5204L37.8296 26.3867C37.8296 26.3867 36.0557 26.8864 35.7959 26.0519C35.5361 25.2174 36.6853 24.7577 37.7197 24.4629C38.7541 24.168 40.1632 23.8682 40.0533 24.0931C39.9433 24.318 37.9046 30.4841 37.9046 30.4841H46.6592Z" fill="white"/>
<path d="M27.4011 17.8369L28.6154 13.4946H16.9576C16.9576 13.4946 8.03312 13.4946 8.03312 18.8363C8.03312 24.178 14.3642 23.8332 14.7739 23.8682C15.1837 23.9032 16.6578 24.168 16.0681 25.1274C15.4785 26.0868 15.4935 26.3866 13.4398 26.3866H6.62899L5 30.4841H16.9926C16.9926 30.4841 23.2087 30.4841 25.2075 27.5609C27.2063 24.6377 26.8765 20.6852 22.4892 20.4253C18.1019 20.1655 18.1019 19.7957 18.1019 18.9912C18.1019 18.1867 20.0657 17.9918 21.0251 17.9918C21.9845 17.9918 27.4011 17.8369 27.4011 17.8369Z" fill="white"/>
<path d="M120.723 22.719V29.2799C120.725 29.5764 120.843 29.8603 121.053 30.07C121.262 30.2796 121.546 30.3979 121.843 30.3992H137.483V22.719H120.723ZM133.041 28.0757H124.891V25.0426H133.041V28.0757Z" fill="white"/>
</g>
<g clip-path="url(#clip1_39_2785)">
<path d="M198.6 45.3318C194.833 45.3318 191.774 47.8302 191.774 50.8933C191.774 53.9564 194.833 56.4549 198.6 56.4549C202.368 56.4549 205.431 53.9564 205.431 50.8933C205.431 47.8302 202.378 45.3318 198.6 45.3318ZM198.6 54.0964C197.998 54.0944 197.409 53.9139 196.909 53.5778C196.41 53.2417 196.02 52.7649 195.791 52.2078C195.562 51.6507 195.503 51.0381 195.622 50.4475C195.741 49.8569 196.032 49.3147 196.458 48.8894C196.885 48.4641 197.428 48.1748 198.019 48.058C198.61 47.9412 199.223 48.0021 199.779 48.2331C200.335 48.4641 200.811 48.8548 201.145 49.3559C201.48 49.8569 201.658 50.4458 201.658 51.0482C201.658 51.4492 201.578 51.8461 201.424 52.2162C201.27 52.5864 201.045 52.9226 200.761 53.2057C200.477 53.4887 200.14 53.713 199.769 53.8659C199.398 54.0187 199.001 54.097 198.6 54.0964V54.0964Z" fill="#616364"/>
<path d="M189.731 45.9863H185.288V65.3793H189.731V45.9863Z" fill="#616364"/>
<path d="M165.661 50.9682H163.077V45.9863H158.635V50.9682V53.3268V65.3843H163.077V53.3268H165.661V50.9682Z" fill="#616364"/>
<path d="M140.066 49.789H137.483V45.9863H133.041V49.789V52.1475V56.4798H137.483V52.1475H140.066V49.789Z" fill="#616364"/>
<path d="M180.032 45.9863V50.9682H177.448V53.3268H180.032V65.3843H184.474V53.3268V50.9682V45.9863H180.032Z" fill="#616364"/>
<path d="M178.478 45.9863H166.975V48.5048H178.478V45.9863Z" fill="#616364"/>
<path d="M149.261 45.6165C145.263 45.6165 142.025 48.4597 142.025 51.9675C142.025 55.4754 145.268 58.3136 149.261 58.3136C153.253 58.3136 156.501 55.4903 156.501 51.9925C156.501 48.4947 153.258 45.6165 149.261 45.6165ZM149.261 55.6103C148.818 55.5942 148.383 55.4908 147.981 55.3061C147.579 55.1213 147.217 54.8589 146.917 54.5338C146.616 54.2087 146.383 53.8274 146.23 53.4119C146.078 52.9963 146.009 52.5547 146.028 52.1124C145.997 51.669 146.059 51.2241 146.208 50.8054C146.357 50.3866 146.59 50.003 146.893 49.6782C147.197 49.3534 147.564 49.0945 147.971 48.9175C148.379 48.7404 148.819 48.6491 149.263 48.6491C149.708 48.6491 150.147 48.7404 150.555 48.9175C150.963 49.0945 151.33 49.3534 151.633 49.6782C151.936 50.003 152.17 50.3866 152.319 50.8054C152.468 51.2241 152.529 51.669 152.499 52.1124C152.518 52.5558 152.45 52.9986 152.297 53.4153C152.145 53.832 151.911 54.2145 151.61 54.5405C151.309 54.8666 150.946 55.1299 150.543 55.3152C150.14 55.5005 149.704 55.6042 149.261 55.6203V55.6103Z" fill="#616364"/>
<path d="M123.851 50.4086L127.444 56.3949H131.941L125.695 45.9863H122.008L115.761 56.3949H120.259L123.851 50.4086Z" fill="#616364"/>
<path d="M172.726 52.3223L174.78 59.8426H178.977L175.534 48.5046H169.913L166.475 59.8426H170.668L172.726 52.3223Z" fill="#616364"/>
<path d="M207.974 65.4492H212.417V60.1724V57.9238H207.974H193.403V60.1724H207.974V65.4492Z" fill="#616364"/>
<path d="M91.4464 52.3874C86.4495 56.265 82.7218 61.6217 80.4532 65.4943H87.1741C87.9336 64.36 88.7881 63.1707 89.7325 61.9964H101.565L101.34 65.4943H110.56V45.1619C106.672 45.6616 98.0174 47.2955 91.4464 52.3874ZM94.9443 56.3849C95.409 55.9802 95.8837 55.5904 96.3734 55.2106C98.172 53.8286 100.122 52.6552 102.185 51.7128L101.885 56.3799L94.9443 56.3849Z" fill="#0080C8"/>
<path d="M215 50.4586V48.1H212.417V45.9863H207.974V48.1V50.4586V52.0426V54.4011V56.4548H212.417V54.4011H215V52.0426H212.417V50.4586H215Z" fill="#616364"/>
<path d="M89.4127 47.4304C88.0738 48.4801 86.8114 49.624 85.6351 50.8533V50.8533C85.6351 50.8533 84.2459 48.4947 80.2234 48.4947C77.9349 48.4454 75.707 49.2325 73.9573 50.7084C73.9573 50.7084 72.4582 48.4947 69.0054 48.4947C66.7364 48.5786 64.5278 49.2483 62.5944 50.4385L63.094 48.4947H54.7092L49.1277 65.4842H57.7074L61.465 55.3305C61.465 55.3305 61.7149 54.4561 63.0741 54.4561C64.4332 54.4561 63.9885 55.7902 63.8786 56.0651C63.7686 56.3399 60.6206 65.4842 60.6206 65.4842H69.2552L72.783 55.3205C72.9302 55.0584 73.15 54.8444 73.416 54.7044C73.6819 54.5643 73.9827 54.5041 74.2821 54.531C75.4764 54.531 75.2815 55.6403 75.0866 56.165C74.8917 56.6897 72.0335 65.4842 72.0335 65.4842H78.1047C80.1535 61.6766 84.3109 54.9907 90.2422 50.3636C97.6127 44.6471 107.641 43.293 110.565 42.9981V40C110.565 40 98.1273 40.6596 89.4127 47.4304Z" fill="#0080C8"/>
<path d="M46.6592 65.4841L50.8216 52.4922C50.8216 52.4922 51.4212 50.2086 49.5274 49.3691C47.6336 48.5296 45.31 48.2648 41.8272 48.4947C38.3443 48.7245 33.6122 49.494 33.6122 49.494L31.9483 54.3061C33.5999 53.8546 35.2814 53.5206 36.9802 53.3067C39.5336 53.0069 41.2875 52.862 41.4274 53.4916C41.5673 54.1212 41.5723 54.6009 38.1294 55.1206C34.6866 55.6402 29.8746 56.6196 28.3205 59.1531C26.7665 61.6865 27.3561 64.6497 28.8202 65.1893C30.2843 65.729 31.8184 65.5191 33.1175 65.5191H36.5204L37.8296 61.3867C37.8296 61.3867 36.0557 61.8864 35.7959 61.0519C35.5361 60.2174 36.6853 59.7577 37.7197 59.4629C38.7541 59.168 40.1632 58.8682 40.0533 59.0931C39.9433 59.318 37.9046 65.4841 37.9046 65.4841H46.6592Z" fill="#0080C8"/>
<path d="M27.4011 52.8369L28.6154 48.4946H16.9576C16.9576 48.4946 8.03312 48.4946 8.03312 53.8363C8.03312 59.178 14.3642 58.8332 14.7739 58.8682C15.1837 58.9032 16.6578 59.168 16.0681 60.1274C15.4785 61.0868 15.4935 61.3866 13.4398 61.3866H6.62899L5 65.4841H16.9926C16.9926 65.4841 23.2087 65.4841 25.2075 62.5609C27.2063 59.6377 26.8765 55.6852 22.4892 55.4253C18.1019 55.1655 18.1019 54.7957 18.1019 53.9912C18.1019 53.1867 20.0657 52.9918 21.0251 52.9918C21.9845 52.9918 27.4011 52.8369 27.4011 52.8369Z" fill="#0080C8"/>
<path d="M120.723 57.719V64.2799C120.725 64.5764 120.843 64.8603 121.053 65.07C121.262 65.2796 121.546 65.3979 121.843 65.3992H137.483V57.719H120.723ZM133.041 63.0757H124.891V60.0426H133.041V63.0757Z" fill="#616364"/>
</g>
<defs>
<clipPath id="clip0_39_2785">
<rect width="210" height="25.5292" fill="white" transform="translate(5 5)"/>
</clipPath>
<clipPath id="clip1_39_2785">
<rect width="210" height="25.5292" fill="white" transform="translate(5 40)"/>
</clipPath>
</defs>
</svg>
