<svg xmlns="http://www.w3.org/2000/svg" viewBox="0 0 420.26 51.09"><defs><style>.cls-1{fill:#fff;}</style></defs><g id="Layer_2" data-name="Layer 2"><g id="Layer_1-2" data-name="Layer 1"><path class="cls-1" d="M387.44,10.67c-7.54,0-13.66,5-13.66,11.13s6.12,11.13,13.66,11.13,13.67-5,13.67-11.13S395,10.67,387.44,10.67Zm0,17.54a6.1,6.1,0,1,1,6.12-6.1A6.11,6.11,0,0,1,387.44,28.21Z"/><rect class="cls-1" x="360.8" y="11.98" width="8.89" height="38.81"/><polygon class="cls-1" points="321.52 21.95 316.35 21.95 316.35 11.98 307.46 11.98 307.46 21.95 307.46 26.67 307.46 50.8 316.35 50.8 316.35 26.67 321.52 26.67 321.52 21.95"/><polygon class="cls-1" points="270.3 19.59 265.13 19.59 265.13 11.98 256.24 11.98 256.24 19.59 256.24 24.31 256.24 32.98 265.13 32.98 265.13 24.31 270.3 24.31 270.3 19.59"/><polygon class="cls-1" points="350.28 11.98 350.28 21.95 345.11 21.95 345.11 26.67 350.28 26.67 350.28 50.8 359.17 50.8 359.17 26.67 359.17 21.95 359.17 11.98 350.28 11.98"/><rect class="cls-1" x="324.15" y="11.98" width="23.02" height="5.04"/><path class="cls-1" d="M288.7,11.24c-8,0-14.48,5.69-14.48,12.71s6.49,12.7,14.48,12.7S303.19,31,303.19,24,296.7,11.24,288.7,11.24Zm0,20a6.72,6.72,0,0,1-6.47-7,6.49,6.49,0,1,1,12.95,0A6.73,6.73,0,0,1,288.7,31.26Z"/><polygon class="cls-1" points="237.85 20.83 245.04 32.81 254.04 32.81 241.54 11.98 234.16 11.98 221.66 32.81 230.66 32.81 237.85 20.83"/><polygon class="cls-1" points="335.66 24.66 339.77 39.71 348.17 39.71 341.28 17.02 330.03 17.02 323.15 39.71 331.54 39.71 335.66 24.66"/><polygon class="cls-1" points="406.2 50.93 415.09 50.93 415.09 40.37 415.09 35.87 406.2 35.87 377.04 35.87 377.04 40.37 406.2 40.37 406.2 50.93"/><path class="cls-1" d="M173,24.79c-10,7.76-17.46,18.48-22,26.23h13.45c1.52-2.27,3.23-4.65,5.12-7h23.68l-.45,7h18.45V10.33C203.47,11.33,186.15,14.6,173,24.79Zm7,8c.93-.81,1.88-1.59,2.86-2.35a60,60,0,0,1,11.63-7l-.6,9.34Z"/><polygon class="cls-1" points="420.26 20.93 420.26 16.21 415.09 16.21 415.09 11.98 406.2 11.98 406.2 16.21 406.2 20.93 406.2 24.1 406.2 28.82 406.2 32.93 415.09 32.93 415.09 28.82 420.26 28.82 420.26 24.1 415.09 24.1 415.09 20.93 420.26 20.93"/><path class="cls-1" d="M168.93,14.87a71.64,71.64,0,0,0-7.56,6.85h0S158.59,17,150.54,17A18.82,18.82,0,0,0,138,21.43S135,17,128.09,17a26.33,26.33,0,0,0-12.83,3.89l1-3.89H99.48L88.31,51h17.17L113,30.68s.5-1.75,3.22-1.75,1.83,2.67,1.61,3.22S111.31,51,111.31,51h17.28l7.06-20.34a3.12,3.12,0,0,1,3-1.58c2.39,0,2,2.22,1.61,3.27S134.15,51,134.15,51H146.3c4.1-7.62,12.42-21,24.29-30.26C185.34,9.3,205.41,6.59,211.26,6V0S186.37,1.32,168.93,14.87Z"/><path class="cls-1" d="M83.37,51,91.7,25s1.2-4.57-2.59-6.25S80.67,16.54,73.7,17,57.26,19,57.26,19l-3.33,9.63a72.58,72.58,0,0,1,10.07-2c5.11-.6,8.62-.89,8.9.37s.29,2.22-6.6,3.26-16.52,3-19.63,8.07-1.93,11,1,12.08,6,.66,8.6.66h6.81L65.7,42.8s-3.55,1-4.07-.67,1.78-2.59,3.85-3.18,4.89-1.19,4.67-.74S65.85,51,65.85,51Z"/><path class="cls-1" d="M44.83,25.69,47.26,17H23.93S6.07,17,6.07,27.69s12.67,10,13.49,10.07,3.77.6,2.59,2.52S21,42.8,16.89,42.8H3.26L0,51H24s12.44,0,16.44-5.85S43.78,31.39,35,30.87,26.22,29.61,26.22,28s3.93-2,5.85-2S44.83,25.69,44.83,25.69Z"/><path class="cls-1" d="M231.59,35.46V48.59a2.25,2.25,0,0,0,2.24,2.24h31.3V35.46Zm24.65,10.72H239.93V40.11h16.31Z"/></g></g></svg>