<svg width="16" height="17" viewBox="0 0 16 17" fill="none" xmlns="http://www.w3.org/2000/svg">
<path d="M4.29495 16.12C3.52209 16.7083 2.44891 15.9605 2.73304 15.0318L3.93968 11.0875C4.06534 10.6767 3.91464 10.2316 3.56529 9.98167L0.534482 7.81329C-0.256395 7.24746 0.143898 6 1.11634 6H4.85597C5.29758 6 5.6869 5.71033 5.8138 5.28735L7.04217 1.19275C7.32723 0.242551 8.67277 0.242553 8.95783 1.19276L10.1862 5.28735C10.3131 5.71033 10.7024 6 11.144 6H14.8837C15.8561 6 16.2564 7.24746 15.4655 7.81329L12.4347 9.98167C12.0854 10.2316 11.9347 10.6767 12.0603 11.0875L13.267 15.0318C13.5511 15.9605 12.4779 16.7083 11.705 16.12L8.60566 13.761C8.24782 13.4886 7.75218 13.4886 7.39434 13.761L4.29495 16.12Z" fill="#FF5252"/>
</svg>
