<?xml version="1.0" encoding="utf-8"?>
<!-- Generator: Adobe Illustrator 25.1.0, SVG Export Plug-In . SVG Version: 6.00 Build 0)  -->
<svg version="1.1" id="Layer_1" xmlns="http://www.w3.org/2000/svg" xmlns:xlink="http://www.w3.org/1999/xlink" x="0px" y="0px"
	 viewBox="0 0 46.6 34.9" style="enable-background:new 0 0 46.6 34.9;" xml:space="preserve">
<style type="text/css">
	.st0{display:none;}
	.st1{display:inline;}
	.st2{fill:#E60013;}
	.st3{fill:#00583E;}
	.st4{fill:#009858;}
	.st5{fill:#6CBC6E;}
	.st6{fill:#303131;}
</style>
<g class="st0">
	<g class="st1">
		<g>
			<path class="st2" d="M23.3,0C10.4,0,0,10.2,0,22.6c0,7.2,4.4,11.9,10.9,12.4c6.7,0.4,12.1-4.7,12.4-11.8
				c0.3-6.2,4.8-11.3,11.3-11.3c6.3,0,10.7,5.3,11.7,11.6c0,0.2,0.3,0.2,0.3,0C46.7,10.1,36.3,0,23.3,0L23.3,0z"/>
		</g>
	</g>
</g>
<g class="st0">
	<g class="st1">
		<g>
			<path class="st3" d="M23.3,0C10.4,0,0,10.2,0,22.6c0,7.2,4.4,11.9,10.9,12.4c6.7,0.4,12.1-4.7,12.4-11.8
				c0.3-6.2,4.8-11.3,11.3-11.3c6.3,0,10.7,5.3,11.7,11.6c0,0.2,0.3,0.2,0.3,0C46.7,10.1,36.3,0,23.3,0L23.3,0z"/>
		</g>
	</g>
</g>
<g class="st0">
	<g class="st1">
		<g>
			<path class="st4" d="M23.3,0C10.4,0,0,10.2,0,22.6c0,7.2,4.4,11.9,10.9,12.4c6.7,0.4,12.1-4.7,12.4-11.8
				c0.3-6.2,4.8-11.3,11.3-11.3c6.3,0,10.7,5.3,11.7,11.6c0,0.2,0.3,0.2,0.3,0C46.7,10.1,36.3,0,23.3,0L23.3,0z"/>
		</g>
	</g>
</g>
<g class="st0">
	<g class="st1">
		<g>
			<path class="st5" d="M23.3,0C10.4,0,0,10.2,0,22.6c0,7.2,4.4,11.9,10.9,12.4c6.7,0.4,12.1-4.7,12.4-11.8
				c0.3-6.2,4.8-11.3,11.3-11.3c6.3,0,10.7,5.3,11.7,11.6c0,0.2,0.3,0.2,0.3,0C46.7,10.1,36.3,0,23.3,0L23.3,0z"/>
		</g>
	</g>
</g>
<g>
	<g>
		<g>
			<path class="st6" d="M23.3,0C10.4,0,0,10.2,0,22.6c0,7.2,4.4,11.9,10.9,12.4c6.7,0.4,12.1-4.7,12.4-11.8
				c0.3-6.2,4.8-11.3,11.3-11.3c6.3,0,10.7,5.3,11.7,11.6c0,0.2,0.3,0.2,0.3,0C46.7,10.1,36.3,0,23.3,0L23.3,0z"/>
		</g>
	</g>
</g>
</svg>
