<svg xmlns="http://www.w3.org/2000/svg" viewBox="0 0 122.57 129.06"><defs><style>.cls-1{fill:#fff;}</style></defs><g id="Layer_2" data-name="Layer 2"><g id="Layer_1-2" data-name="Layer 1"><path class="cls-1" d="M85.75,11.67a27.24,27.24,0,0,1,3.11,12.62c0,15.82-12,27.58-27.57,27.58S33.71,40.11,33.71,24.29a26.58,26.58,0,0,1,3.11-12.62,61.29,61.29,0,1,0,48.93,0ZM61.29,0C48.41,0,38,10.2,38,22.56c0,7.18,4.41,11.93,10.9,12.36,6.74.43,12.1-4.67,12.36-11.84.26-6.22,4.75-11.32,11.32-11.32,6.31,0,10.72,5.27,11.67,11.58,0,.17.35.17.35,0A23,23,0,0,0,61.29,0ZM19,69.15c0,5.36,2,11,6.83,13.83l-1.91,1.91a17.93,17.93,0,0,1-8-8,17.9,17.9,0,0,1-8,8.3L6.14,83.5a17.7,17.7,0,0,0,7-14.35V62.24H19ZM42.18,66.3c0,1.47,2.25,2.85,6.23,2.85s6.22-1.38,6.22-2.85-2.16-2.77-6.22-2.77-6.23,1.39-6.23,2.77Zm18.33,0c0,3.37-4.5,5.27-12.1,5.27s-12.1-1.9-12.1-5.27c0-3.11,4.49-5.19,12.1-5.19s12.1,2.08,12.1,5.19Zm15.13,9.42c-6.92,0-12-2.85-12-7.17s5.1-7.09,12-7.09,12,2.85,12,7.09-5,7.17-12,7.17Zm0-2.5c3.71,0,6.13-1.82,6.13-4.67S79.35,64,75.64,64s-6.14,1.81-6.14,4.58,2.42,4.67,6.14,4.67ZM27.23,73H22.3V70.19h4.93V61.55h5.88V86.18H27.23ZM38.47,86.18A1.47,1.47,0,0,1,37,84.71V80.22H53.94v-1.3H37V76.59h8.38V75H35.61V72.61H61.2V75H51.52v1.56h8.3v5.88H42.88v1.29H60v2.42Zm40.19-6.13v6.13H72.52V80.05H62.93V77.54H88.34v2.51Zm33,0v6.13h-6.05V80.05h-5.44v6.13h-6V80.05H90.25V77.54h25.41v2.51ZM103,75.72c-6.91,0-12-2.85-12-7.17s5.1-7.09,12-7.09,12,2.85,12,7.09-5,7.17-12,7.17Zm0-2.5c3.72,0,6.14-1.82,6.14-4.67S106.67,64,103,64s-6.13,1.81-6.13,4.58S99.24,73.22,103,73.22Z"/></g></g></svg>