<svg xmlns="http://www.w3.org/2000/svg" viewBox="0 0 663.79 144"><defs><style>.cls-1{fill:#e60013;}.cls-2{fill:#fff;}.cls-3{fill:none;}</style></defs><g id="Layer_2" data-name="Layer 2"><g id="Layer_1-2" data-name="Layer 1"><path class="cls-1" d="M421.28,46.14v5.67h-41.2V46.14ZM420.3,65a8.94,8.94,0,0,1-1.52,5.14,11.9,11.9,0,0,1-4.19,3.73,22.39,22.39,0,0,1-6.23,2.24,36.65,36.65,0,0,1-7.71.76,37.68,37.68,0,0,1-7.78-.76,21.92,21.92,0,0,1-6.26-2.24,11.94,11.94,0,0,1-4.15-3.73,9.5,9.5,0,0,1,0-10.31,11.94,11.94,0,0,1,4.15-3.69,21,21,0,0,1,6.26-2.21,39.16,39.16,0,0,1,7.78-.73,36.65,36.65,0,0,1,7.71.76,22.08,22.08,0,0,1,6.23,2.24,12.1,12.1,0,0,1,4.19,3.69A8.84,8.84,0,0,1,420.3,65Zm-30.79,36.26a3.26,3.26,0,0,1-2.6-1,3.79,3.79,0,0,1-.89-2.61V78.84h13.91v5.27h26.5V78.84h13.91v22.41Zm4.09-53.6V42h13.91v5.67ZM394.85,65a6.06,6.06,0,0,0,1.65,4.68,6.29,6.29,0,0,0,8.2,0A6,6,0,0,0,406.39,65a6,6,0,0,0-1.69-4.61,6.08,6.08,0,0,0-8.2,0A6.08,6.08,0,0,0,394.85,65Zm31.58,30.39V89.85h-26.5v5.53Zm1.71-22.74h-9.29V66.9h9.29Zm.07-11.54H419V55.37h9.23Zm-1.78-18.46h13.91V76.86H426.43Z"/><path class="cls-1" d="M505.6,70.4v5.8H444.82V70.4Zm-1.91,20.43a7.47,7.47,0,0,1-1.95,5.11,15.17,15.17,0,0,1-5.6,3.76,37.57,37.57,0,0,1-8.93,2.34,80.77,80.77,0,0,1-11.93.79,80,80,0,0,1-11.9-.79,37.42,37.42,0,0,1-8.9-2.34,15.3,15.3,0,0,1-5.61-3.76,7.51,7.51,0,0,1-1.94-5.11,7.66,7.66,0,0,1,1.94-5.14,15.1,15.1,0,0,1,5.61-3.79,37.42,37.42,0,0,1,8.9-2.34,80,80,0,0,1,11.9-.79,80.77,80.77,0,0,1,11.93.79,37.57,37.57,0,0,1,8.93,2.34,15,15,0,0,1,5.6,3.79A7.62,7.62,0,0,1,503.69,90.83Zm-52-25.44a3.26,3.26,0,0,1-2.6-1,3.77,3.77,0,0,1-.89-2.54V44h54.06v5.87H462.09v9.76h40.48v5.8Zm9.17,25.44q0,2.44,3.69,4.29T475.28,97q7.19,0,10.84-1.84t3.66-4.29q0-2.43-3.69-4.31t-10.81-1.88q-7.06,0-10.75,1.88T460.84,90.83Zm7.71-19.51V64h14.57v7.32Z"/><path class="cls-1" d="M539.06,66.38a29.09,29.09,0,0,1-5.38,5.7,40.53,40.53,0,0,1-6.85,4.51,43.2,43.2,0,0,1-7.45,3.07A30.73,30.73,0,0,1,512.22,81l-3-4.75A26.07,26.07,0,0,0,519,73.07a26.09,26.09,0,0,0,11.63-13.62,23.39,23.39,0,0,0,1.55-8.3V45.61H546v5.54a23.61,23.61,0,0,0,1.55,8.3,25.46,25.46,0,0,0,4.52,7.65,27.48,27.48,0,0,0,7.22,6A25.69,25.69,0,0,0,569,76.26L566,81a31.25,31.25,0,0,1-7.19-1.35,41.19,41.19,0,0,1-7.48-3.1A42.55,42.55,0,0,1,544.46,72,28.85,28.85,0,0,1,539.06,66.38Z"/><rect class="cls-1" x="509.03" y="92.61" width="60.19" height="6"/><rect class="cls-1" x="512.65" y="44.29" width="52.94" height="6"/><rect class="cls-1" x="531.84" y="80.55" width="14.57" height="13.71"/><path class="cls-1" d="M613.12,46.14v5.67h-41.6V46.14Zm-1,18.85a8.81,8.81,0,0,1-1.55,5.14,12.19,12.19,0,0,1-4.22,3.73A22.41,22.41,0,0,1,600,76.1a40.66,40.66,0,0,1-15.65,0,22.42,22.42,0,0,1-6.3-2.24,11.87,11.87,0,0,1-4.18-3.73,9.5,9.5,0,0,1,0-10.31,11.87,11.87,0,0,1,4.18-3.69,21.52,21.52,0,0,1,6.3-2.21,39.42,39.42,0,0,1,7.84-.73A38.11,38.11,0,0,1,600,54a22.1,22.1,0,0,1,6.33,2.24,12.4,12.4,0,0,1,4.22,3.69A8.72,8.72,0,0,1,612.13,65Zm-32.76,36.26a3.28,3.28,0,0,1-2.61-1,3.84,3.84,0,0,1-.89-2.61V78.84h13.91v5.27h26.44V78.84h13.91v22.41Zm5.86-53.6V42h13.91v5.67ZM586.29,65A5.94,5.94,0,0,0,588,69.67a6.16,6.16,0,0,0,4.22,1.52,6.26,6.26,0,0,0,4.25-1.52A5.85,5.85,0,0,0,598.22,65a5.88,5.88,0,0,0-1.75-4.61,6.08,6.08,0,0,0-4.25-1.59,5.68,5.68,0,0,0-5.93,6.2Zm29.93,30.39V89.85H589.78v5.53Zm13.91-18.52H616.22V42.64h13.91ZM627.56,57h9.23v6.59h-9.23Z"/><path class="cls-1" d="M189,74.68V69h60.79v5.73Zm59.2-20.63a7.84,7.84,0,0,1-2,5.21,15.26,15.26,0,0,1-5.67,3.89,39,39,0,0,1-9,2.44,77.18,77.18,0,0,1-12.12.85,76.87,76.87,0,0,1-12.07-.85,38.79,38.79,0,0,1-9-2.44,15,15,0,0,1-5.64-3.89,8,8,0,0,1,0-10.42A15,15,0,0,1,198.27,45a37.93,37.93,0,0,1,9-2.4,79.53,79.53,0,0,1,12.07-.83,77.09,77.09,0,0,1,12.12.86,38.53,38.53,0,0,1,9,2.44,15.44,15.44,0,0,1,5.67,3.85A7.73,7.73,0,0,1,248.17,54.05Zm-52.34,47.2a3.26,3.26,0,0,1-2.6-1,3.79,3.79,0,0,1-.89-2.61V87h40.21v-2.9H192.34V78.37h54.12V92.48H206.25v2.9h40.54v5.87Zm8.7-47.2a3.84,3.84,0,0,0,1,2.5,8.93,8.93,0,0,0,2.87,2.15A18.4,18.4,0,0,0,213,60.21a31.56,31.56,0,0,0,6.33.56,32.5,32.5,0,0,0,6.42-.56,18.38,18.38,0,0,0,4.68-1.51,8.46,8.46,0,0,0,2.84-2.15,4,4,0,0,0,.95-2.5,4,4,0,0,0-.95-2.47,8,8,0,0,0-2.84-2.15A19.27,19.27,0,0,0,225.79,48a33.28,33.28,0,0,0-6.42-.56A32.31,32.31,0,0,0,213,48a19.29,19.29,0,0,0-4.65,1.48,8.73,8.73,0,0,0-2.87,2.11A3.89,3.89,0,0,0,204.53,54.05Zm22.15,19.51v6.2H212.11v-6.2Z"/><path class="cls-1" d="M253.25,86.61v-6h60.19v6Zm30.06-10.35a50.7,50.7,0,0,1-11.44-1.21,32.88,32.88,0,0,1-9-3.43,17.77,17.77,0,0,1-5.9-5.31,12.35,12.35,0,0,1,0-13.81,17.63,17.63,0,0,1,5.9-5.34,32.88,32.88,0,0,1,9-3.43,54.25,54.25,0,0,1,22.88,0,33.35,33.35,0,0,1,9.06,3.43,17.46,17.46,0,0,1,5.93,5.34,12.35,12.35,0,0,1,0,13.81,17.59,17.59,0,0,1-5.93,5.31,33.35,33.35,0,0,1-9.06,3.43A50.7,50.7,0,0,1,283.31,76.26Zm0-6a22.38,22.38,0,0,0,6-.76,14,14,0,0,0,4.61-2.18,9.84,9.84,0,0,0,3-3.43,10.23,10.23,0,0,0,0-9,9.9,9.9,0,0,0-3-3.42,14,14,0,0,0-4.61-2.18,22,22,0,0,0-6-.76,21.66,21.66,0,0,0-6,.76,14.1,14.1,0,0,0-4.58,2.18,10,10,0,0,0-3,3.42,10.15,10.15,0,0,0,0,9,9.91,9.91,0,0,0,3,3.43,14.1,14.1,0,0,0,4.58,2.18A22,22,0,0,0,283.31,70.27Zm7.32,15.29v15.69H276.06V85.56Z"/><path class="cls-1" d="M317.19,86.61v-6h60.19v6Zm30.06-10.35a50.55,50.55,0,0,1-11.43-1.21,32.83,32.83,0,0,1-9-3.43,17.87,17.87,0,0,1-5.9-5.31,12.35,12.35,0,0,1,0-13.81,17.72,17.72,0,0,1,5.9-5.34,32.83,32.83,0,0,1,9-3.43,54.2,54.2,0,0,1,22.87,0,33.42,33.42,0,0,1,9.07,3.43,17.64,17.64,0,0,1,5.93,5.34,12.35,12.35,0,0,1,0,13.81,17.78,17.78,0,0,1-5.93,5.31,33.42,33.42,0,0,1-9.07,3.43A50.64,50.64,0,0,1,347.25,76.26Zm-6.46,9v16h-14.3v-16Zm6.46-15a22.38,22.38,0,0,0,6-.76,14.13,14.13,0,0,0,4.62-2.18,9.91,9.91,0,0,0,3-3.43,10.15,10.15,0,0,0,0-9,10,10,0,0,0-3-3.42,14.13,14.13,0,0,0-4.62-2.18,22,22,0,0,0-6-.76,21.64,21.64,0,0,0-6,.76,14,14,0,0,0-4.58,2.18,9.9,9.9,0,0,0-3,3.42,10.15,10.15,0,0,0,0,9,9.84,9.84,0,0,0,3,3.43,14,14,0,0,0,4.58,2.18A22,22,0,0,0,347.25,70.27Zm20.83,15v16h-14.3v-16Z"/><path class="cls-1" d="M151.21,60.69c0,12.72,4.72,26.06,16.21,32.84L162.91,98C155.11,94.35,148.54,87.58,144,79c-3.9,8.42-11.7,16.43-19.09,19.71l-4.31-3.9c11.09-8.21,16.63-21.14,16.63-34.07V44.26h14Z"/><polygon class="cls-1" points="170.71 70.05 159.01 70.05 159.01 63.28 170.71 63.28 170.71 42.75 184.67 42.75 184.67 101.25 170.71 101.25 170.71 70.05"/><path class="cls-2" d="M105.72,38.28A47.49,47.49,0,0,0,87.79,27a20.41,20.41,0,0,0-31.58,0,47.71,47.71,0,1,0,49.51,11.3Z"/><path class="cls-1" d="M90,30.81a20.23,20.23,0,1,1-38.21,9.26A19.42,19.42,0,0,1,54,30.81a45,45,0,1,0,35.92,0ZM72,22.24A16.85,16.85,0,0,0,54.93,38.81c0,5.26,3.23,8.75,8,9.07,5,.32,8.89-3.43,9.08-8.69.19-4.57,3.49-8.32,8.31-8.32,4.64,0,7.87,3.87,8.57,8.51,0,.12.26.12.26,0A16.88,16.88,0,0,0,72,22.24ZM41,73c0,3.93,1.46,8.06,5,10.15l-1.4,1.4a13.2,13.2,0,0,1-5.84-5.91,13.1,13.1,0,0,1-5.9,6.1l-1.33-1.21A13,13,0,0,0,36.65,73V67.94H41Zm17-2.1C58,72,59.62,73,62.54,73s4.57-1,4.57-2.1-1.58-2-4.57-2-4.57,1-4.57,2Zm13.46,0c0,2.48-3.3,3.87-8.89,3.87s-8.88-1.39-8.88-3.87c0-2.28,3.3-3.81,8.88-3.81s8.89,1.53,8.89,3.81Zm11.11,6.92c-5.08,0-8.83-2.1-8.83-5.27s3.75-5.2,8.83-5.2,8.82,2.09,8.82,5.2-3.68,5.27-8.82,5.27Zm0-1.84c2.73,0,4.5-1.33,4.5-3.43s-1.77-3.36-4.5-3.36S78,70.54,78,72.57,79.81,76,82.54,76ZM47,75.87H43.38V73.78H47V67.43h4.32V85.52H47Zm8.25,9.65a1,1,0,0,1-1.08-1.08v-3.3H66.61v-1H54.16V78.47h6.16V77.33H53.15V75.55H71.94v1.78H64.83v1.14h6.09v4.32H58.48v.95H71.05v1.78ZM84.76,81v4.51H80.25V81h-7V79.17H91.87V81ZM109,81v4.51h-4.44V81h-4v4.51H96.12V81H93.26V79.17h18.66V81Zm-6.41-3.17c-5.08,0-8.82-2.1-8.82-5.27s3.74-5.2,8.82-5.2,8.82,2.09,8.82,5.2-3.68,5.27-8.82,5.27Zm0-1.84c2.73,0,4.51-1.33,4.51-3.43s-1.78-3.36-4.51-3.36-4.5,1.33-4.5,3.36S99.86,76,102.59,76Z"/><rect class="cls-3" width="663.79" height="144"/></g></g></svg>