<svg width="54" height="64" viewBox="0 0 54 64" fill="none" xmlns="http://www.w3.org/2000/svg">
<path fill-rule="evenodd" clip-rule="evenodd" d="M45.9331 45.6471C50.7034 40.8047 53.6471 34.1579 53.6471 26.8235C53.6471 12.0093 41.6378 0 26.8235 0C12.0093 0 0 12.0093 0 26.8235C0 34.1579 2.94363 40.8047 7.71393 45.6471H7.66897L26.8234 64L45.9779 45.6471H45.9331Z" fill="#E60012"/>
<g clip-path="url(#clip0_517_767)">
<path d="M33.8853 10.5264C34.501 11.7031 34.8231 13.0116 34.8241 14.34C34.8241 19.1206 31.2017 22.6742 26.5016 22.6742C21.8015 22.6742 18.1761 19.1206 18.1761 14.34C18.1689 13.0106 18.4915 11.7002 19.1149 10.5264C15.2163 12.2254 12.0213 15.2169 10.0675 18.9973C8.1137 22.7778 7.52028 27.1166 8.38711 31.2836C9.25394 35.4507 11.5281 39.1917 14.827 41.8772C18.1259 44.5627 22.2481 46.0288 26.5001 46.0288C30.7521 46.0288 34.8743 44.5627 38.1731 41.8772C41.472 39.1917 43.7462 35.4507 44.613 31.2836C45.4799 27.1166 44.8864 22.7778 42.9326 18.9973C40.9788 15.2169 37.7838 12.2254 33.8853 10.5264V10.5264ZM26.5016 6.99991C22.6135 6.99991 19.4711 10.0822 19.4711 13.8172C19.4711 15.9869 20.8023 17.4223 22.7614 17.5522C24.796 17.6822 26.414 16.141 26.4925 13.9743C26.571 12.0947 27.9264 10.5536 29.9097 10.5536C31.8145 10.5536 33.1457 12.1461 33.4325 14.0529C33.4325 14.1043 33.5381 14.1043 33.5381 14.0529C33.5519 13.1236 33.3794 12.201 33.0308 11.3397C32.6822 10.4783 32.1646 9.6957 31.5085 9.03811C30.8525 8.38053 30.0713 7.86133 29.2113 7.51124C28.3513 7.16115 27.4299 6.98728 26.5016 6.99991V6.99991ZM13.7356 27.896C13.7356 29.5157 14.3393 31.22 15.7973 32.0752L15.2208 32.6524C14.1762 32.1286 13.3291 31.2805 12.8058 30.2349C12.2991 31.3147 11.4501 32.1965 10.3909 32.7431L9.85354 32.2324C10.5205 31.7258 11.0592 31.0695 11.4263 30.3162C11.7933 29.563 11.9784 28.734 11.9666 27.896V25.8079H13.7356V27.896ZM20.7329 27.0348C20.7329 27.479 21.4121 27.896 22.6135 27.896C23.815 27.896 24.4911 27.479 24.4911 27.0348C24.4911 26.5906 23.8391 26.1977 22.6135 26.1977C21.3879 26.1977 20.7329 26.6178 20.7329 27.0348V27.0348ZM26.2661 27.0348C26.2661 28.0531 24.9077 28.6273 22.6135 28.6273C20.3193 28.6273 18.9609 28.0531 18.9609 27.0348C18.9609 26.095 20.3163 25.4664 22.6135 25.4664C24.9107 25.4664 26.2661 26.095 26.2661 27.0348ZM30.8334 29.8814C28.7445 29.8814 27.211 29.0201 27.211 27.7147C27.211 26.4093 28.7505 25.5722 30.8334 25.5722C32.9163 25.5722 34.4558 26.4334 34.4558 27.7147C34.4558 28.996 32.9465 29.8814 30.8334 29.8814ZM30.8334 29.1259C31.9533 29.1259 32.6838 28.5759 32.6838 27.7147C32.6838 26.8535 31.9533 26.3398 30.8334 26.3398C29.7135 26.3398 28.9799 26.8867 28.9799 27.7238C28.9799 28.5608 29.7104 29.135 30.8334 29.135V29.1259ZM16.2199 29.0594H14.7317V28.2103H16.2199V25.5994H17.9949V33.0422H16.2199V29.0594ZM19.6129 33.0422C19.5547 33.0422 19.497 33.0307 19.4431 33.0084C19.3893 32.9861 19.3404 32.9534 19.2992 32.9121C19.258 32.8709 19.2253 32.8219 19.203 32.768C19.1807 32.7141 19.1692 32.6563 19.1692 32.598V31.2412H24.2828V30.8484H19.1692V30.1443H21.6989V29.6638H18.7496V28.9416H26.4744V29.6638H23.5523V30.1352H26.0578V31.912H20.9442V32.3019H26.1122V33.0332L19.6129 33.0422ZM31.745 31.1898V33.0422H29.8916V31.1898H26.9966V30.4313H34.6671V31.1898H31.745ZM41.7067 31.1898V33.0422H39.8804V31.1898H38.2382V33.0422H36.427V31.1898H35.2437V30.4313H42.9142V31.1898H41.7067ZM39.0925 29.8814C37.0066 29.8814 35.4701 29.0201 35.4701 27.7147C35.4701 26.4093 37.0096 25.5722 39.0925 25.5722C41.1754 25.5722 42.7149 26.4334 42.7149 27.7147C42.7149 28.996 41.2056 29.8814 39.0925 29.8814ZM39.0925 29.1259C40.2155 29.1259 40.946 28.5759 40.946 27.7147C40.946 26.8535 40.2004 26.3398 39.0925 26.3398C37.9847 26.3398 37.2421 26.8867 37.2421 27.7238C37.2421 28.5608 37.9575 29.1259 39.0925 29.1259Z" fill="white"/>
</g>
<defs>
<clipPath id="clip0_517_767">
<rect width="37" height="39" fill="white" transform="translate(8 7)"/>
</clipPath>
</defs>
</svg>
